<?xml version="1.0" standalone="no"?>
<!DOCTYPE svg PUBLIC "-//W3C//DTD SVG 20010904//EN"
 "http://www.w3.org/TR/2001/REC-SVG-20010904/DTD/svg10.dtd">
<svg version="1.0" xmlns="http://www.w3.org/2000/svg"
 width="1024.000000pt" height="923.000000pt" viewBox="0 0 1024.000000 923.000000"
 preserveAspectRatio="xMidYMid meet">

<g transform="translate(0.000000,923.000000) scale(0.100000,-0.100000)"
fill="#000000" stroke="none">
<path d="M3090 9183 c-18 -27 -53 -65 -77 -87 -24 -21 -53 -55 -64 -75 -39
-72 -97 -163 -106 -170 -5 -3 -28 -42 -52 -86 -23 -44 -51 -89 -62 -101 -10
-11 -19 -25 -19 -31 0 -5 -9 -18 -21 -29 -28 -26 -125 -174 -148 -227 -40 -92
-114 -243 -126 -257 -7 -8 -20 -42 -30 -75 -9 -33 -27 -78 -40 -100 -13 -22
-44 -103 -69 -180 -25 -77 -56 -174 -70 -215 -13 -41 -37 -104 -54 -140 -16
-36 -35 -87 -42 -115 -17 -67 -45 -129 -66 -145 -14 -12 -23 -12 -62 2 -52 19
-77 12 -92 -28 -17 -43 8 -119 41 -127 10 -3 28 -20 39 -38 19 -31 21 -43 15
-124 -3 -49 -10 -94 -14 -100 -22 -28 -51 -134 -61 -222 -12 -112 -34 -249
-49 -308 -6 -22 -11 -62 -11 -90 -1 -97 -34 -154 -113 -195 -46 -25 -189 -166
-254 -253 -23 -31 -61 -68 -84 -82 -22 -15 -82 -68 -132 -119 -70 -69 -110
-101 -167 -130 -84 -43 -164 -100 -185 -132 -7 -12 -33 -30 -57 -42 -25 -11
-55 -32 -69 -46 -13 -14 -29 -26 -36 -26 -6 0 -13 -3 -15 -7 -1 -5 -43 -37
-92 -73 -121 -89 -282 -255 -305 -315 -2 -5 -17 -39 -33 -74 -50 -111 -78
-209 -79 -280 -1 -132 -30 -174 -134 -192 -33 -5 -67 -11 -75 -13 -11 -2 -15
-17 -15 -57 0 -43 3 -53 15 -50 8 2 43 6 77 8 80 7 113 -11 113 -62 0 -30 -5
-37 -40 -55 -21 -11 -46 -20 -55 -20 -9 0 -23 -7 -31 -15 -9 -8 -31 -15 -50
-15 l-34 0 0 -66 c0 -49 3 -65 13 -62 30 12 124 39 214 63 29 8 46 -18 84
-131 58 -171 59 -224 2 -244 -16 -6 -35 -14 -43 -20 -8 -5 -60 -32 -115 -59
-55 -28 -113 -61 -128 -74 -26 -22 -28 -28 -25 -86 l3 -63 38 26 c21 14 43 26
49 26 6 0 19 6 27 14 23 20 161 67 173 60 7 -5 8 -31 3 -78 -13 -111 -6 -318
11 -336 7 -9 29 -45 47 -81 19 -36 49 -85 66 -109 17 -24 31 -48 31 -55 0 -12
84 -89 126 -115 13 -8 24 -18 24 -22 0 -4 24 -19 52 -33 29 -14 58 -32 63 -38
21 -26 137 -96 186 -112 31 -11 53 -24 56 -35 5 -18 42 -40 69 -40 8 0 31 -10
52 -23 40 -25 135 -61 192 -72 19 -4 46 -15 60 -25 31 -22 80 -36 145 -44 61
-7 66 -8 135 -30 30 -10 100 -22 155 -27 141 -13 154 -15 210 -24 28 -4 55
-11 60 -15 6 -4 26 -11 45 -15 19 -4 41 -11 50 -15 37 -19 89 -40 102 -40 7
-1 31 -9 53 -20 22 -11 48 -19 58 -20 9 0 17 -4 17 -9 0 -5 14 -12 30 -16 17
-4 30 -10 30 -15 0 -4 16 -11 35 -14 19 -4 47 -13 62 -21 15 -8 42 -15 60 -15
17 0 35 -4 38 -10 3 -5 28 -12 56 -16 27 -4 52 -11 55 -15 3 -5 14 -9 26 -9
34 0 85 -29 97 -56 16 -36 14 -61 -14 -139 -23 -66 -24 -79 -21 -245 2 -96 9
-197 16 -225 6 -27 13 -70 16 -95 5 -57 18 -123 43 -227 10 -46 17 -83 14 -83
-5 0 28 -61 42 -75 6 -6 18 -14 28 -18 9 -3 17 -13 17 -20 0 -8 7 -20 16 -28
8 -7 28 -40 44 -73 18 -40 39 -67 59 -79 17 -10 31 -25 31 -33 0 -8 4 -14 8
-14 5 0 18 -17 30 -37 21 -36 118 -141 195 -211 34 -30 41 -32 108 -32 l72 0
-24 19 c-13 10 -33 21 -45 25 -11 3 -30 26 -42 51 -12 25 -30 49 -40 52 -36
13 -83 57 -112 104 -16 27 -34 49 -40 49 -5 0 -25 24 -45 53 -44 66 -110 158
-126 175 -12 14 -38 78 -71 177 -11 33 -27 78 -36 100 -16 42 -45 206 -63 363
-10 81 -9 96 4 109 13 14 17 13 30 -8 8 -13 25 -60 37 -104 12 -44 34 -100 48
-125 15 -25 36 -66 48 -91 12 -26 27 -50 33 -54 7 -4 22 -23 35 -43 13 -21 47
-63 77 -95 30 -33 79 -87 109 -121 112 -127 192 -163 333 -153 152 11 191 39
248 185 39 99 42 115 43 202 0 63 -5 110 -16 140 -9 25 -22 65 -29 90 -37 134
-81 236 -135 315 -8 11 -14 26 -14 34 0 17 -134 281 -161 316 -4 6 -30 62 -57
125 -28 63 -58 129 -66 145 -9 17 -16 34 -16 38 0 4 -9 28 -20 53 -18 39 -21
68 -23 216 -2 200 -4 203 -82 168 -48 -22 -130 -27 -520 -32 -16 -1 -122 3
-235 7 -113 4 -275 9 -360 10 -85 2 -202 8 -260 14 -58 6 -134 11 -170 12 -36
0 -101 7 -145 15 -139 24 -440 64 -482 64 -23 0 -46 -6 -52 -14 -19 -22 37
-42 154 -56 177 -22 226 -42 251 -108 15 -41 62 -96 140 -163 54 -47 155 -161
151 -172 -8 -23 -163 -13 -247 15 -41 14 -129 43 -195 63 -66 21 -127 44 -136
51 -8 8 -20 14 -26 14 -6 0 -16 7 -23 15 -6 8 -37 21 -68 30 -31 9 -67 25 -80
36 -14 10 -34 19 -45 19 -11 0 -47 19 -81 42 -54 37 -107 72 -157 103 -32 20
-165 124 -187 147 -13 12 -54 71 -93 131 -81 124 -95 177 -84 316 9 109 24
150 84 224 107 134 162 168 338 212 167 41 192 41 501 5 45 -5 91 -14 102 -20
10 -5 40 -10 67 -10 51 0 237 -31 442 -74 68 -14 128 -23 134 -19 5 3 7 1 3
-5 -4 -6 15 -17 50 -27 56 -16 84 -15 84 4 0 17 -34 30 -93 37 -31 4 -58 12
-61 20 -3 7 -13 11 -23 8 -10 -2 -29 5 -42 16 -18 15 -22 26 -17 46 4 15 10
24 13 21 3 -4 20 4 37 17 26 20 144 63 323 117 54 17 111 -16 226 -133 152
-153 183 -180 283 -240 132 -79 284 -143 419 -177 191 -48 242 -55 410 -55
154 0 260 7 307 20 10 3 48 9 85 14 75 9 94 13 136 29 16 6 41 11 57 11 17 0
40 11 57 26 l28 25 -86 -4 c-47 -3 -97 -10 -110 -18 -13 -7 -42 -14 -64 -16
-117 -9 -321 -20 -325 -18 -3 2 -42 6 -88 9 -45 3 -100 10 -122 16 -22 6 -44
9 -48 6 -5 -3 -28 0 -53 5 -141 32 -217 53 -240 65 -14 7 -57 21 -95 30 -38 9
-76 22 -84 29 -8 6 -45 28 -82 48 -90 50 -157 95 -199 135 -19 17 -65 60 -103
95 -72 66 -100 106 -90 131 8 21 37 30 160 46 38 5 90 14 115 20 112 29 292
64 399 79 41 6 118 17 170 26 264 44 485 75 570 80 41 3 95 12 120 19 25 8 79
17 120 21 41 4 86 8 100 10 14 1 57 6 95 9 112 12 148 16 175 21 14 2 54 7 90
10 36 3 106 10 155 16 50 5 104 9 120 8 17 -1 62 2 100 6 89 11 717 12 810 2
108 -11 148 -16 175 -21 74 -15 162 -25 220 -25 36 0 93 -3 128 -7 43 -4 62
-3 62 5 0 6 -1 11 -2 11 -129 26 -405 60 -423 54 -8 -3 -20 -2 -27 2 -7 4 -19
9 -28 10 -8 1 -49 6 -90 11 -41 6 -102 12 -134 12 -33 1 -67 6 -75 10 -26 12
-93 16 -316 15 -253 0 -540 -11 -614 -24 -30 -6 -73 -10 -95 -10 -22 0 -65 -4
-95 -10 -59 -10 -175 -22 -430 -45 -180 -17 -266 -28 -411 -56 -58 -12 -139
-25 -180 -29 -41 -5 -109 -17 -150 -26 -41 -9 -109 -20 -150 -24 -102 -11
-282 -45 -415 -77 -60 -15 -155 -32 -210 -38 -114 -14 -132 -9 -183 49 -29 33
-72 116 -72 139 0 6 -7 18 -16 28 -13 15 -14 24 -5 52 16 47 55 81 135 117 37
17 90 46 116 64 28 20 66 36 93 39 25 4 68 20 96 37 29 16 57 30 62 30 6 0 25
6 42 14 18 8 88 33 157 56 69 24 130 47 135 51 14 11 170 68 220 81 71 19 188
59 255 88 71 31 134 53 220 76 30 8 74 24 97 34 53 25 320 108 398 125 79 17
183 42 270 65 39 10 90 21 115 25 25 4 61 11 80 15 78 19 150 35 285 61 130
25 202 42 255 61 74 27 191 48 325 57 61 5 124 14 140 20 17 7 76 13 131 13
105 0 138 8 118 28 -19 19 -159 21 -298 4 -72 -9 -162 -19 -201 -24 -108 -12
-336 -50 -354 -59 -9 -5 -54 -11 -101 -14 -52 -3 -103 -13 -130 -25 -50 -21
-143 -45 -270 -67 -47 -8 -110 -22 -140 -30 -30 -8 -64 -15 -77 -15 -27 0
-107 -21 -193 -50 -36 -12 -103 -31 -150 -41 -113 -25 -207 -53 -310 -94 -47
-18 -105 -35 -128 -39 -24 -3 -69 -17 -100 -30 -32 -14 -75 -30 -97 -37 -22
-6 -76 -27 -120 -45 -44 -19 -93 -37 -110 -40 -38 -9 -171 -60 -206 -79 -14
-8 -43 -18 -65 -24 -21 -5 -63 -19 -91 -30 -79 -31 -216 -87 -303 -122 -14 -6
-50 -23 -80 -38 -70 -36 -180 -58 -218 -45 -23 8 -27 16 -29 49 -2 64 -3 65
-12 65 -4 0 -11 -37 -14 -81 -4 -59 -11 -89 -25 -108 -33 -46 -158 -129 -224
-151 -21 -6 -38 -16 -38 -21 0 -5 -12 -15 -27 -22 -16 -6 -37 -20 -48 -30 -11
-10 -42 -31 -70 -47 -53 -31 -135 -104 -135 -121 0 -6 5 -19 10 -30 24 -43
118 -8 218 81 30 27 71 57 91 66 20 9 55 32 78 51 41 34 123 70 153 67 34 -3
50 -17 50 -43 0 -15 3 -30 6 -34 3 -3 7 -27 8 -54 2 -26 9 -65 16 -85 20 -54
4 -83 -49 -92 -23 -3 -56 -15 -73 -26 -18 -11 -45 -20 -59 -20 -15 0 -53 -12
-85 -26 -33 -14 -77 -32 -99 -38 -22 -7 -60 -26 -84 -42 -75 -50 -105 -64
-141 -64 -38 0 -223 32 -280 49 -86 24 -183 41 -280 47 -58 4 -115 10 -127 15
-48 18 -19 56 62 83 28 9 72 27 99 41 27 14 62 25 78 25 16 0 46 9 67 20 21
10 73 28 115 39 42 11 81 23 86 26 21 13 9 34 -25 45 -19 6 -35 16 -35 21 0 6
33 45 73 88 39 43 86 93 103 112 18 19 58 57 90 85 33 29 89 79 125 111 76 70
82 75 174 149 39 30 85 63 103 72 17 9 32 20 32 24 0 5 4 6 10 3 6 -3 10 -1
10 6 0 11 48 7 84 -7 8 -3 24 13 40 40 30 51 90 103 156 134 25 12 63 37 84
57 22 19 44 35 48 35 5 0 34 11 64 25 30 14 58 25 62 25 5 0 13 5 19 11 7 7
34 20 62 30 153 56 212 84 281 131 19 13 91 45 160 72 69 26 135 57 149 67 13
10 42 24 65 30 22 6 64 22 93 35 29 13 87 37 130 53 43 16 101 38 128 49 28
12 77 29 110 38 136 37 221 65 298 98 45 20 104 40 131 46 27 6 56 15 66 20 9
5 39 12 66 15 27 4 105 23 174 44 69 21 163 44 210 51 46 6 93 16 103 21 22
13 116 30 181 35 27 2 70 10 95 19 25 8 60 17 76 19 17 3 39 7 50 10 103 29
133 36 157 36 15 0 52 7 83 15 31 8 99 17 153 20 139 8 256 24 337 45 39 10
121 24 184 30 63 7 139 18 168 26 30 8 96 14 147 14 78 0 98 3 117 19 22 18
23 20 6 27 -11 4 -56 1 -100 -6 -45 -6 -93 -11 -107 -9 -59 6 -86 3 -197 -16
-18 -4 -47 -7 -65 -9 -18 -2 -41 -6 -50 -11 -10 -4 -25 -4 -34 -1 -15 6 -159
-15 -224 -33 -19 -5 -66 -12 -105 -15 -38 -4 -97 -11 -130 -16 -33 -5 -100
-12 -150 -15 -49 -4 -110 -13 -135 -20 -25 -8 -67 -16 -95 -19 -27 -3 -93 -17
-145 -31 -52 -15 -118 -29 -147 -31 -29 -2 -78 -11 -110 -19 -31 -8 -67 -15
-80 -15 -24 0 -340 -79 -415 -104 -24 -8 -70 -20 -103 -26 -32 -7 -77 -20
-100 -30 -22 -10 -65 -25 -95 -34 -158 -47 -258 -79 -288 -92 -18 -7 -41 -14
-52 -14 -10 0 -21 -4 -25 -9 -3 -5 -31 -15 -63 -21 -31 -6 -75 -19 -97 -30
-60 -29 -144 -65 -200 -85 -27 -10 -74 -29 -104 -42 -30 -14 -83 -36 -118 -49
-72 -27 -145 -63 -153 -74 -7 -11 -168 -86 -215 -100 -42 -13 -97 -39 -105
-50 -12 -16 -256 -120 -282 -120 -39 0 -45 24 -15 59 13 16 34 62 46 101 14
44 29 75 42 83 11 6 30 30 41 52 21 40 38 62 94 119 17 17 43 49 59 71 41 56
217 229 299 295 38 30 85 72 105 92 20 20 53 44 74 53 20 8 37 19 37 23 0 9
12 15 111 63 41 20 88 48 104 62 17 13 55 32 84 41 52 15 168 63 223 93 47 24
167 41 308 43 178 3 251 -4 267 -26 7 -10 13 -13 13 -6 0 6 -15 27 -34 45 -44
45 -91 52 -326 52 -175 0 -189 -2 -261 -28 -42 -14 -102 -40 -134 -57 -31 -16
-63 -30 -70 -30 -7 0 -32 -9 -56 -20 -45 -20 -104 -26 -113 -12 -8 13 46 109
92 162 23 27 42 52 42 57 0 4 26 31 57 58 31 28 78 77 105 109 52 61 305 271
347 287 21 8 138 106 191 159 8 8 22 20 31 25 35 22 114 81 131 98 10 9 20 17
23 17 4 0 29 16 160 104 28 19 67 48 89 65 21 17 45 31 53 31 7 0 42 17 76 39
34 21 73 41 87 44 14 4 44 22 67 42 23 19 46 35 53 35 6 0 44 19 83 42 82 48
242 133 337 179 36 17 115 55 175 84 61 29 147 65 193 80 45 15 85 31 88 37 8
12 50 29 89 35 17 2 41 12 55 22 14 10 36 20 50 24 14 3 66 17 115 32 224 65
324 90 440 109 50 8 156 29 236 45 282 58 749 78 954 40 61 -11 155 -24 210
-29 102 -10 178 -22 365 -58 58 -11 125 -24 150 -27 25 -4 85 -20 133 -36 49
-16 98 -29 109 -29 11 0 32 -8 46 -18 48 -34 145 -75 227 -99 22 -6 208 -76
265 -100 19 -8 61 -28 93 -44 31 -16 62 -29 69 -29 6 0 23 -13 38 -29 27 -28
131 -101 144 -101 20 0 291 -247 320 -292 9 -14 33 -37 52 -50 20 -13 39 -37
45 -58 7 -19 18 -39 25 -43 17 -10 18 -47 2 -48 -7 0 -21 -2 -30 -4 -10 -2
-40 5 -68 16 -53 20 -119 27 -138 15 -25 -15 -13 -53 21 -69 45 -22 107 -44
140 -51 46 -11 139 -80 192 -145 l50 -61 3 118 c2 75 -2 126 -9 142 -7 14 -17
39 -24 55 -30 71 -41 91 -60 106 -43 36 -61 55 -74 81 -7 14 -25 40 -40 56
-14 16 -33 38 -43 48 -9 11 -29 30 -46 44 -74 62 -137 118 -167 148 -19 17
-37 32 -42 32 -5 0 -34 23 -65 50 -31 28 -60 50 -65 50 -6 0 -30 16 -54 35
-90 70 -268 158 -354 175 -33 7 -80 20 -104 31 -24 10 -51 19 -61 19 -9 0 -48
20 -86 45 -40 26 -81 45 -98 45 -31 0 -135 52 -160 79 -9 9 -20 52 -26 96 -30
232 -50 312 -110 440 -16 33 -32 73 -36 90 -4 16 -13 36 -21 43 -7 7 -13 20
-13 28 0 8 -11 31 -24 52 -12 20 -27 48 -31 62 -14 43 -128 260 -136 260 -5 0
-9 9 -9 19 0 11 -12 33 -26 50 l-26 31 -143 0 c-91 0 -146 -4 -150 -11 -10
-15 3 -25 17 -11 8 8 17 8 31 1 15 -9 18 -8 12 3 -3 7 1 4 10 -7 9 -11 21 -19
26 -18 5 2 8 -2 6 -9 -1 -7 4 -12 12 -13 8 0 15 -9 17 -19 1 -10 7 -22 12 -25
17 -11 11 -61 -9 -72 -16 -8 -17 -14 -9 -30 6 -11 15 -17 19 -15 4 3 8 -1 8
-9 0 -8 -6 -15 -14 -15 -13 0 -14 -1 -18 -36 -2 -18 1 -20 21 -10 21 9 24 18
24 63 0 28 3 54 8 56 15 9 47 -11 48 -29 1 -28 15 -55 25 -48 5 3 6 -2 3 -10
-3 -8 -13 -17 -22 -19 -10 -3 0 -5 21 -6 28 -1 37 -5 37 -18 0 -14 -2 -15 -9
-4 -6 10 -11 5 -16 -19 -4 -19 -3 -36 4 -43 8 -8 11 -7 12 4 0 7 5 3 11 -11 6
-14 10 -29 9 -33 -1 -5 3 -6 8 -3 15 10 29 -18 33 -64 3 -38 7 -45 28 -50 14
-3 25 -11 25 -17 0 -6 3 -15 8 -19 4 -4 7 -14 7 -21 0 -11 -8 -13 -30 -8 -22
5 -30 3 -30 -7 -1 -10 -4 -9 -13 2 -14 17 -42 26 -32 10 4 -6 1 -18 -7 -27 -8
-11 -9 -14 -1 -10 7 5 16 -1 23 -13 6 -11 14 -19 18 -18 16 4 51 -14 56 -29 5
-13 4 -13 -8 -4 -9 8 -21 8 -39 2 -14 -6 -37 -8 -51 -5 -15 2 -36 0 -47 -6
-16 -9 -18 -14 -8 -26 10 -13 15 -13 34 0 21 14 23 14 18 -4 -3 -10 -15 -21
-27 -23 -19 -4 -18 -4 4 -6 20 -1 22 -3 10 -11 -13 -8 -12 -10 3 -10 9 0 17
-5 17 -11 0 -5 -4 -7 -10 -4 -5 3 -10 2 -10 -3 0 -5 -9 -12 -21 -15 -13 -4
-18 -10 -13 -18 4 -8 3 -10 -5 -5 -9 6 -11 -6 -9 -46 3 -48 5 -53 28 -55 l25
-2 -25 8 c-15 6 -19 9 -8 10 19 1 18 22 -1 45 -14 17 -8 20 29 17 11 -1 11 2
-3 13 -18 14 -18 15 1 25 19 10 32 6 32 -11 0 -5 -5 -6 -12 -2 -7 5 -8 3 -3
-5 5 -9 10 -10 18 -2 14 14 17 51 4 51 -6 0 -8 3 -4 6 3 3 2 16 -3 28 -6 17
-5 23 5 23 8 0 12 -4 9 -9 -3 -4 4 -28 15 -52 14 -32 15 -43 6 -40 -10 4 -13
-4 -12 -27 1 -18 8 -34 16 -37 8 -3 11 0 8 5 -4 6 4 8 20 5 24 -5 26 -3 20 25
-3 18 -1 35 6 43 10 10 8 12 -6 7 -10 -4 -16 -3 -12 2 3 5 2 11 -2 14 -5 2 -3
2 4 1 7 -2 10 3 7 11 -4 10 0 13 15 10 13 -2 22 3 26 16 8 23 25 25 25 3 0 -9
9 -18 20 -21 18 -5 25 -21 21 -46 -1 -4 5 -18 14 -30 21 -29 19 -47 -4 -42
-14 2 -18 -1 -14 -11 3 -7 10 -11 17 -7 6 3 6 1 -1 -8 -15 -16 -17 -39 -3 -39
6 0 10 8 10 17 0 15 2 14 14 -2 8 -11 12 -23 10 -27 -3 -5 0 -8 6 -8 7 0 10
-7 7 -15 -4 -8 -2 -17 3 -20 6 -4 10 -12 10 -18 0 -8 -3 -8 -9 1 -7 11 -10 10
-15 -3 -9 -23 -8 -24 17 -19 12 2 17 2 10 -2 -7 -3 -10 -11 -7 -18 3 -8 -1
-16 -8 -18 -16 -6 -90 26 -81 35 3 4 3 7 -2 7 -4 0 -13 -7 -20 -16 -8 -12 -20
-15 -38 -10 -33 8 -35 28 -4 50 12 9 18 15 12 15 -41 -5 -57 2 -52 22 4 14 2
18 -6 11 -21 -16 -49 -23 -41 -11 4 7 1 10 -7 7 -8 -3 -13 -11 -11 -18 2 -7 0
-20 -4 -29 -7 -16 -11 -26 -13 -38 0 -4 -6 -2 -13 5 -7 7 -25 12 -40 12 -15 0
-28 4 -28 8 0 5 -20 7 -45 6 -37 -2 -45 0 -43 14 2 12 -6 16 -29 18 -19 1 -33
-3 -33 -10 0 -6 -7 -2 -15 8 -8 11 -15 15 -15 9 0 -7 -9 -11 -20 -10 -11 1
-20 5 -20 9 0 4 -5 8 -11 8 -5 0 -7 -4 -4 -10 8 -13 2 -13 -29 4 -20 10 -39
11 -74 4 -26 -5 -58 -6 -72 -2 -14 4 -77 7 -140 8 -68 2 -124 7 -138 15 -19
10 -23 9 -28 -4 -4 -10 -12 -14 -23 -9 -9 4 -32 8 -51 9 -19 1 -46 5 -59 9
-16 6 -21 5 -17 -3 5 -7 -4 -11 -26 -11 -67 -1 -174 -8 -193 -13 -11 -3 -33
-12 -50 -21 -16 -9 -53 -16 -81 -16 -28 0 -68 -7 -89 -16 -24 -10 -60 -14
-103 -12 -37 1 -73 -1 -81 -6 -7 -5 -30 -12 -50 -17 -31 -7 -40 -5 -63 18 -23
22 -30 24 -43 13 -10 -8 -29 -10 -60 -6 l-45 7 0 -30 c0 -17 -2 -31 -5 -31 -9
0 -43 38 -39 43 3 2 -4 7 -16 10 -11 3 -23 1 -26 -4 -3 -5 -10 -9 -15 -9 -6 0
-8 3 -6 8 3 4 -9 7 -26 7 -22 0 -33 -5 -35 -18 -2 -9 -8 -14 -14 -11 -19 12
-27 -19 -12 -48 13 -25 13 -29 -1 -34 -9 -4 -18 -4 -21 -1 -8 7 -91 -27 -92
-38 -1 -20 -43 -25 -70 -7 -21 14 -23 18 -9 20 15 3 23 28 18 55 -1 5 8 5 20
2 15 -5 19 -4 14 4 -4 7 -1 20 7 29 12 15 11 16 -4 4 -9 -8 -23 -10 -29 -6 -8
4 -9 3 -5 -4 4 -7 1 -12 -8 -12 -10 0 -13 -6 -10 -15 4 -8 1 -15 -5 -15 -6 0
-11 5 -11 12 0 6 -3 8 -6 5 -4 -4 -1 -13 6 -22 8 -9 8 -15 2 -15 -6 0 -12 -10
-14 -22 -2 -18 -11 -24 -35 -26 -29 -3 -57 -32 -31 -32 6 0 9 -2 6 -5 -9 -10
-38 7 -31 18 3 6 1 7 -5 3 -6 -4 -8 -14 -5 -22 8 -22 -14 -33 -49 -24 -17 5
-26 5 -23 -1 8 -12 -85 -12 -104 0 -7 5 -10 14 -7 20 4 6 2 11 -3 11 -6 0 -11
12 -11 28 -1 23 -2 25 -11 9 -5 -9 -8 -21 -4 -26 3 -5 0 -13 -6 -17 -8 -4 -9
-3 -5 4 4 7 1 12 -10 12 -13 0 -15 7 -12 31 3 19 0 33 -8 36 -7 2 -11 15 -8
28 2 14 -2 25 -11 29 -20 7 -8 36 15 36 22 0 34 28 19 46 -11 14 -1 20 26 14
5 -1 7 2 3 5 -4 4 2 25 13 47 19 38 21 39 42 25 12 -9 21 -19 20 -24 -1 -4 9
-9 22 -9 17 -1 24 5 28 24 5 26 5 26 -10 7 -15 -20 -15 -20 -11 0 4 24 74 51
92 36 6 -5 28 -11 49 -12 33 -3 40 0 57 29 16 26 17 32 5 33 -8 1 -19 3 -25 4
-5 1 -14 3 -20 4 -5 0 -10 7 -10 15 0 9 -7 13 -20 11 -11 -2 -20 1 -20 7 0 7
-4 7 -13 0 -7 -6 -32 -12 -55 -13 -41 -3 -48 -10 -43 -46 1 -7 -2 -13 -8 -13
-5 0 -11 6 -14 13 -3 9 -7 9 -20 -2 -10 -8 -17 -9 -17 -3 0 11 19 27 32 27 3
0 10 3 14 7 3 4 -3 6 -14 3 -12 -2 -24 1 -27 6 -4 5 -12 6 -18 2 -7 -4 -16 -8
-21 -8 -5 0 -10 -7 -11 -16 -2 -9 3 -16 11 -16 7 0 12 3 11 6 -1 3 1 7 6 9 4
1 7 0 7 -3 0 -3 0 -10 0 -15 0 -7 -23 -10 -57 -10 -84 2 -98 -2 -98 -33 0 -15
-3 -26 -6 -24 -3 1 -13 -4 -21 -10 -12 -10 -15 -10 -15 2 0 8 4 12 9 9 4 -3 8
0 8 5 0 6 -5 11 -11 11 -8 0 -8 5 1 15 9 10 9 15 1 15 -6 0 -11 -5 -11 -12 0
-6 -6 -4 -13 6 -12 17 -14 17 -28 -1 -13 -17 -13 -17 5 -3 18 14 19 13 13 -2
-4 -11 -2 -17 5 -15 11 2 16 -24 19 -92 0 -18 7 -48 15 -67 14 -33 10 -64 -7
-64 -5 0 -8 -25 -7 -56 2 -44 5 -54 18 -51 18 5 36 -12 34 -30 -1 -7 -2 -21
-4 -30 -1 -11 -3 -13 -7 -5 -6 15 -43 16 -43 1 0 -5 4 -7 10 -4 5 3 20 -1 34
-10 28 -19 40 -8 30 28 -3 14 -1 28 4 31 6 4 8 -3 4 -16 -5 -20 -3 -21 10 -10
14 11 17 8 26 -17 12 -34 8 -41 -27 -41 -14 0 -33 -5 -41 -10 -12 -8 -10 -10
9 -10 22 0 22 -1 9 -22 -8 -12 -29 -27 -47 -33 -18 -6 -36 -16 -40 -24 -7 -11
-14 -10 -36 5 -22 14 -27 15 -23 4 3 -8 11 -14 17 -12 7 1 10 -2 6 -7 -3 -6
-22 -9 -41 -7 -30 2 -38 -1 -47 -23 -15 -36 -15 -35 -34 -20 -11 9 -14 10 -9
2 5 -9 1 -13 -12 -13 -10 0 -33 -16 -51 -35 -17 -19 -36 -35 -42 -35 -6 0 -25
-10 -41 -22 -28 -19 -32 -20 -43 -5 -10 14 -13 14 -28 -4 -16 -18 -43 -28 -33
-10 3 4 -1 16 -8 27 -12 16 -10 22 19 50 19 19 35 45 38 65 3 19 7 45 10 59 3
14 8 45 11 71 4 26 15 52 26 61 11 10 16 24 13 36 -2 11 3 35 12 53 10 18 19
58 20 89 5 83 27 168 53 194 22 23 31 66 13 66 -5 0 -7 26 -5 58 14 270 16
292 28 292 9 0 13 16 13 48 0 26 3 70 6 97 2 28 5 63 6 78 1 24 4 27 22 22 19
-6 20 -3 18 49 -3 64 1 72 29 57 35 -19 48 -12 61 29 6 22 17 40 22 40 6 0 9
-6 6 -14 -3 -7 0 -19 6 -25 6 -6 7 -11 3 -11 -5 0 -3 -7 4 -15 7 -8 23 -15 35
-15 25 0 49 -22 37 -35 -4 -4 7 0 25 9 39 19 57 21 50 3 -3 -8 4 -13 19 -13
23 0 24 4 25 61 1 33 1 63 0 68 -2 13 36 77 43 70 3 -3 6 -1 6 5 0 9 -34 12
-114 12 -109 0 -115 -1 -122 -22 -5 -18 -8 -19 -15 -5 -5 9 -16 14 -24 11 -8
-4 -15 -2 -15 3 0 13 -32 13 -47 0 -7 -5 -13 -6 -13 -1 0 5 -7 -2 -16 -14 -13
-19 -19 -21 -30 -11 -8 7 -12 19 -10 26 5 12 -21 14 -162 12 -103 -1 -173 -6
-182 -13 -23 -17 -22 -34 1 -41 17 -6 20 -13 15 -37 -5 -27 -4 -28 10 -13 11
11 25 14 45 10 25 -6 28 -4 22 12 -6 17 -5 17 15 -1 21 -19 32 -73 12 -61 -5
3 -10 1 -10 -5 0 -6 -5 -8 -10 -5 -6 4 -8 11 -5 16 3 5 -1 6 -10 3 -11 -5 -14
-2 -9 12 5 15 4 16 -4 5 -6 -8 -9 -29 -7 -47 2 -26 0 -32 -14 -28 -9 3 -5 -1
8 -8 19 -10 25 -10 29 0 2 7 8 10 13 7 5 -4 6 2 2 11 -5 14 -3 16 11 11 10 -4
21 -7 26 -7 10 0 10 -6 10 -120 -1 -48 -6 -89 -12 -95 -8 -7 -9 -6 -3 4 6 10
4 12 -4 6 -9 -5 -10 -10 -2 -18 16 -16 14 -38 -5 -59 -13 -14 -14 -21 -5 -32
7 -8 8 -17 3 -20 -5 -3 -12 -19 -15 -35 -4 -21 -13 -30 -29 -33 -13 -2 -21 -7
-18 -13 3 -5 8 -9 12 -8 4 2 5 -4 2 -12 -4 -8 -11 -15 -17 -15 -6 0 -7 -3 -4
-6 4 -4 14 -1 23 7 16 13 16 12 5 -8 -13 -25 -31 -29 -49 -11 -9 9 -12 6 -12
-16 0 -15 -4 -25 -9 -22 -9 6 -41 -36 -41 -54 0 -6 10 -15 23 -21 21 -9 21 -9
-3 -4 -14 4 -31 7 -38 7 -7 1 -10 9 -6 20 4 13 1 16 -10 12 -9 -3 -13 -11 -9
-18 4 -7 1 -7 -9 1 -8 7 -19 9 -24 5 -4 -4 -3 0 4 9 6 9 8 20 4 25 -4 4 2 2
12 -6 17 -13 18 -13 11 -1 -6 11 -4 13 8 8 9 -3 18 1 21 9 10 26 7 33 -12 29
-15 -2 -19 3 -19 26 0 24 3 27 16 16 12 -10 13 -9 6 3 -13 21 -15 41 -4 34 5
-3 9 0 9 5 0 6 -7 11 -15 11 -8 0 -15 -7 -15 -15 0 -8 -6 -12 -14 -9 -12 5
-14 -4 -10 -50 4 -52 3 -55 -17 -51 -12 3 -18 1 -15 -3 4 -4 12 -7 17 -7 5 0
8 -4 7 -10 -2 -5 -13 -9 -25 -8 -16 1 -21 -3 -20 -17 1 -17 3 -18 18 -4 15 13
17 13 23 -1 3 -9 10 -13 16 -10 6 3 7 -1 4 -9 -6 -17 -26 -23 -22 -7 2 5 -1 9
-7 10 -10 1 -11 -15 -4 -54 2 -11 -1 -21 -6 -22 -6 -2 -10 6 -10 16 0 11 -2
22 -5 25 -3 3 -6 -10 -6 -27 0 -27 4 -33 22 -33 13 0 22 2 21 6 -1 3 3 6 8 8
11 2 11 -11 -1 -48 l-8 -25 -7 25 c-7 24 -7 24 -8 3 -1 -13 -6 -23 -12 -23 -6
0 -8 9 -4 21 5 15 4 19 -4 15 -16 -10 -14 -31 4 -46 10 -9 15 -9 15 -1 0 12
22 11 31 -3 4 -5 10 1 14 13 3 11 13 21 21 21 8 0 14 9 14 21 0 17 -3 19 -14
10 -10 -8 -16 -9 -21 -1 -3 5 0 10 7 10 8 0 6 5 -5 11 -10 6 -14 15 -10 22 4
7 0 6 -10 -2 -15 -11 -17 -11 -17 2 0 8 12 17 26 20 21 4 25 1 21 -14 -3 -12
0 -19 9 -19 24 0 40 -46 23 -67 -11 -13 -11 -15 -1 -9 8 5 20 22 28 40 14 28
15 29 11 5 -5 -33 17 -34 32 -2 8 17 7 23 -1 23 -6 0 -8 3 -4 7 4 5 14 -1 22
-11 10 -14 14 -16 15 -5 0 8 4 3 10 -9 9 -25 4 -46 -11 -37 -4 3 -3 -11 3 -31
9 -28 8 -40 -6 -63 -17 -30 -37 -136 -39 -207 0 -41 -3 -45 -32 -52 -25 -7
-32 -14 -34 -38 -2 -16 -9 -35 -15 -43 -6 -7 -16 -22 -22 -34 -14 -28 -94 -68
-128 -64 -15 2 -31 -1 -34 -6 -3 -6 -1 -7 5 -3 7 4 12 1 12 -9 0 -10 -5 -13
-12 -9 -7 5 -8 3 -3 -6 4 -7 2 -16 -6 -21 -20 -13 -31 -11 -23 4 5 8 2 8 -9
-2 -11 -9 -17 -10 -17 -2 0 6 -4 11 -10 11 -5 0 -10 -7 -10 -16 0 -8 -4 -13
-9 -10 -5 3 -12 -1 -15 -10 -3 -9 -13 -14 -21 -10 -8 3 -17 1 -20 -3 -3 -5
-15 -7 -28 -4 -18 4 -19 3 -7 -6 13 -9 13 -11 -2 -11 -9 0 -18 6 -21 13 -2 7
-10 1 -17 -15 -7 -15 -20 -30 -29 -33 -56 -23 -145 -25 -164 -5 -9 10 -9 11 2
5 12 -7 30 9 31 28 0 4 -21 7 -47 8 -27 0 -43 3 -37 5 9 4 9 11 0 29 -14 32
-28 32 -16 1 5 -13 7 -26 5 -27 -10 -11 -11 -79 -1 -79 6 0 5 -4 -4 -9 -8 -6
-18 -7 -24 -4 -5 3 -6 1 -2 -6 4 -6 1 -14 -7 -17 -23 -8 -147 -10 -150 -2 -1
5 -34 8 -74 9 -57 1 -75 5 -89 20 -9 10 -23 19 -31 19 -10 0 -12 10 -9 38 3
20 5 47 5 60 1 13 7 22 16 22 8 0 15 8 15 17 0 56 70 195 128 252 27 27 47
121 22 106 -11 -7 7 42 25 65 6 8 17 34 23 56 7 23 19 45 28 48 10 4 14 12 10
22 -4 10 7 37 26 68 18 28 33 54 33 58 0 4 8 16 17 27 9 11 14 22 11 24 -2 3
5 8 18 12 12 4 32 19 45 34 19 21 25 23 33 12 13 -20 33 22 30 63 -2 22 5 43
24 68 16 20 31 52 34 72 3 21 10 33 16 29 6 -4 7 -1 2 7 -4 7 -2 16 6 21 12 8
12 11 -1 19 -11 7 -11 10 -2 10 7 0 11 4 7 9 -3 5 0 13 6 17 8 4 9 3 5 -4 -4
-7 -2 -12 3 -12 6 0 11 -11 11 -24 0 -31 22 -50 38 -34 9 9 12 9 12 0 0 -13
65 -17 73 -4 2 4 2 1 1 -5 -3 -12 9 -18 31 -13 6 1 5 -4 -2 -11 -10 -10 -9
-15 5 -25 10 -8 12 -13 5 -14 -8 0 -13 -13 -13 -32 0 -44 -12 -59 -41 -54 -13
3 -26 5 -29 5 -3 1 -6 13 -7 27 0 15 -7 30 -15 35 -10 7 -8 9 7 9 17 1 16 3
-7 16 -16 8 -28 19 -28 23 0 5 -7 12 -16 15 -13 5 -15 1 -12 -19 6 -27 -1 -32
-19 -14 -11 11 -10 5 3 -68 7 -37 29 -44 37 -12 3 12 10 18 16 14 20 -12 11
-33 -17 -40 -18 -3 -35 -18 -46 -38 -14 -27 -15 -29 -1 -12 16 19 16 19 13
-15 -2 -28 0 -35 14 -34 10 1 15 -2 12 -7 -3 -5 8 -9 25 -9 16 0 33 5 36 10 3
6 21 10 40 10 28 0 33 -3 30 -19 -2 -11 3 -22 11 -25 9 -3 13 -10 9 -15 -8
-13 33 -5 51 10 13 11 19 5 14 -16 -1 -5 5 -4 12 4 10 10 10 15 1 18 -11 4
-11 10 3 51 6 18 6 118 0 162 -2 14 -4 37 -5 53 0 15 -5 27 -10 27 -5 0 -8 -6
-7 -12 1 -14 -5 -18 -29 -18 -8 0 -15 7 -15 15 0 8 -5 15 -12 15 -9 0 -9 3 0
12 7 7 12 17 12 22 0 6 -4 5 -9 -2 -7 -11 -9 -11 -14 2 -6 16 17 34 41 30 6
-1 17 -2 23 -3 5 0 8 -5 4 -10 -3 -5 -1 -12 4 -15 17 -11 6 19 -15 40 -19 19
-22 19 -32 5 -8 -13 -9 -11 -5 9 4 19 2 22 -6 10 -8 -12 -11 -11 -19 9 -6 16
-11 20 -16 13 -8 -13 -26 -7 -26 9 0 5 16 9 35 9 19 0 35 5 35 10 0 6 -21 10
-46 10 -40 0 -45 2 -39 18 4 9 7 29 6 44 -2 42 50 87 62 56 4 -10 6 -10 6 0 2
21 21 13 21 -9 0 -13 -4 -18 -12 -13 -7 5 -8 3 -3 -5 5 -9 10 -10 18 -2 14 14
50 15 42 1 -3 -5 -4 -10 -1 -10 2 0 11 14 20 31 11 22 12 28 2 20 -7 -6 -17
-7 -21 -3 -5 4 -5 1 -1 -5 4 -7 3 -13 -3 -13 -14 0 -23 18 -12 24 8 6 6 50 -4
65 -1 3 3 20 11 36 l14 30 -4 -27 c-3 -25 0 -27 25 -24 19 2 29 -1 29 -10 0
-10 9 -12 33 -7 17 3 34 10 35 15 6 13 19 9 26 -8 3 -8 2 -13 -3 -10 -5 3 -14
-1 -21 -9 -10 -12 -16 -13 -28 -3 -13 11 -14 11 -7 -1 6 -11 4 -13 -8 -8 -10
3 -17 4 -17 1 0 -3 12 -9 28 -15 26 -9 27 -12 27 -73 l-1 -64 27 19 c24 17 28
17 33 3 9 -23 8 -26 -6 -18 -9 6 -9 3 0 -9 9 -10 11 -24 6 -39 -4 -13 -7 -29
-5 -37 1 -7 -2 -10 -8 -6 -7 4 -11 -3 -11 -17 0 -18 2 -20 10 -8 7 11 10 2 10
-31 0 -26 3 -61 6 -78 4 -18 3 -31 -2 -29 -5 2 -20 -5 -34 -15 -13 -9 -20 -17
-16 -17 5 0 18 8 29 18 20 16 20 16 14 -1 -4 -10 -7 -23 -7 -28 0 -6 -5 -7
-12 -3 -7 4 -8 3 -4 -5 9 -15 26 -5 26 16 0 9 6 13 15 9 8 -3 15 -1 15 4 0 5
7 7 15 4 11 -5 13 -2 9 10 -3 9 -13 16 -21 16 -19 0 -14 81 6 88 8 3 11 0 7
-7 -14 -22 -14 -48 0 -48 9 0 11 4 4 12 -11 13 22 70 34 58 4 -4 4 1 0 12 -5
11 -9 14 -12 7 -2 -7 -8 -10 -13 -7 -5 4 -6 -2 -2 -12 6 -17 5 -17 -15 1 -12
11 -22 27 -22 37 0 10 -4 21 -10 24 -6 4 -5 11 2 19 11 11 15 10 25 -3 15 -19
17 -45 3 -36 -5 3 -10 -1 -10 -9 0 -31 29 -13 43 27 4 12 3 16 -4 11 -7 -4
-10 4 -8 22 2 16 0 35 -4 42 -5 6 -5 16 -2 22 7 11 8 92 2 125 -2 11 3 25 12
32 14 10 14 12 -2 18 -13 5 -15 11 -7 20 8 9 6 15 -7 20 -32 14 -42 13 -36 -2
4 -11 2 -14 -8 -11 -8 3 -14 15 -13 27 0 16 -5 21 -23 21 -13 0 -23 -4 -23
-10 0 -5 -5 -10 -11 -10 -5 0 -7 4 -4 10 4 6 -91 9 -267 9 -260 0 -273 -1
-286 -20 -11 -16 -17 -17 -28 -8 -9 8 -14 8 -14 1 0 -6 8 -15 17 -20 21 -12
27 -71 7 -79 -17 -6 -8 -23 13 -23 11 0 14 7 11 25 -3 14 -2 25 3 25 13 0 17
-24 7 -48 -4 -13 -5 -28 -2 -34 4 -6 2 -8 -4 -5 -5 4 -21 3 -34 -3 -21 -9 -21
-10 -2 -7 11 1 28 -4 37 -11 13 -11 14 -19 5 -40 -6 -15 -19 -34 -28 -42 -9
-8 -19 -23 -23 -32 -3 -10 -11 -18 -17 -18 -6 0 -8 5 -5 11 4 6 -2 5 -13 -2
-12 -7 -18 -17 -16 -21 3 -4 2 -8 -3 -8 -4 0 -9 -18 -11 -40 -1 -22 -7 -51
-12 -65 -10 -26 -30 -34 -30 -12 0 6 -5 4 -11 -6 -6 -9 -14 -15 -18 -13 -5 3
-6 -6 -3 -21 3 -18 1 -24 -6 -19 -8 5 -9 0 -3 -16 9 -24 -13 -83 -27 -74 -4 2
-20 -7 -37 -19 -25 -21 -27 -25 -12 -31 39 -15 6 -84 -40 -84 -28 0 -39 -31
-17 -47 14 -10 15 -17 5 -41 -7 -16 -14 -44 -16 -62 -5 -35 -50 -109 -72 -117
-7 -3 -19 0 -27 6 -22 18 -40 -28 -30 -80 5 -24 8 -50 7 -56 0 -7 4 -13 10
-13 7 0 7 -4 -1 -12 -8 -8 -15 -9 -20 -3 -4 6 -16 10 -27 10 -14 0 -20 -7 -19
-23 0 -12 -4 -21 -10 -19 -6 2 -10 11 -8 20 3 20 -10 28 -28 16 -12 -7 -11 -9
4 -9 11 0 16 -3 13 -6 -4 -4 7 -23 24 -42 23 -26 28 -37 18 -43 -7 -4 -17 -5
-21 -3 -4 3 -5 -3 -1 -12 4 -11 3 -15 -5 -11 -7 5 -9 -8 -7 -40 3 -49 -3 -70
-31 -97 -20 -20 -58 -21 -74 -1 -9 11 -16 12 -25 5 -6 -5 -15 -7 -19 -3 -4 4
-4 0 0 -10 4 -13 1 -17 -14 -17 -16 0 -19 5 -15 23 3 16 2 18 -5 8 -8 -11 -12
-10 -21 7 -6 11 -11 27 -11 34 0 7 -9 19 -20 26 -19 11 -20 10 -20 -32 0 -32
-5 -48 -17 -55 -14 -8 -15 -10 -3 -11 13 0 13 -1 0 -11 -13 -9 -13 -10 0 -6 8
2 15 9 15 15 0 5 4 14 8 19 5 4 6 -13 2 -39 -8 -52 0 -92 14 -70 6 9 12 7 26
-8 11 -12 13 -20 6 -20 -9 0 -9 -5 -1 -21 13 -24 4 -41 -10 -19 -7 10 -9 2 -6
-27 3 -39 2 -41 -15 -32 -14 7 -19 6 -19 -3 0 -9 -3 -9 -10 2 -8 12 -10 11
-10 -7 0 -13 -5 -23 -12 -23 -6 0 -9 3 -5 6 6 7 -19 64 -29 64 -3 0 -2 -5 2
-12 5 -7 1 -9 -13 -6 -19 5 -20 3 -12 -26 5 -17 9 -32 9 -33 0 -1 -8 -4 -17
-7 -11 -3 -7 -4 7 -3 17 1 24 -3 22 -12 -2 -9 10 -4 32 12 31 24 35 25 40 9 6
-19 1 -55 -10 -74 -4 -7 -3 -8 4 -4 11 6 17 -18 13 -46 0 -4 7 -4 16 -1 11 4
14 3 9 -5 -4 -7 -2 -12 3 -12 6 0 11 5 11 10 0 6 9 10 21 10 17 0 20 -5 18
-33 -2 -18 0 -38 4 -44 4 -7 4 -20 -1 -30 -5 -10 -17 -35 -26 -55 -8 -21 -20
-38 -25 -38 -6 0 -22 -11 -37 -25 -15 -14 -39 -25 -53 -26 -23 0 -24 -1 -6 -9
17 -7 17 -9 3 -9 -11 -1 -18 -9 -19 -23 -1 -13 -2 -32 -3 -43 -1 -11 5 -31 12
-44 9 -14 10 -26 4 -30 -8 -5 -9 -119 -1 -186 2 -11 2 -44 1 -72 -2 -64 -24
-90 -70 -87 -27 2 -32 -2 -32 -19 0 -17 2 -19 9 -8 12 18 39 23 48 9 3 -7 1
-8 -5 -4 -7 4 -12 1 -12 -6 0 -9 -3 -9 -10 2 -5 8 -10 10 -10 4 0 -5 5 -15 11
-21 7 -7 8 -19 4 -30 -5 -10 -7 -22 -6 -27 1 -5 -7 -15 -19 -23 -11 -8 -18
-19 -15 -24 4 -5 18 4 31 21 14 16 23 34 19 40 -3 5 -1 10 4 10 6 0 11 -7 11
-15 0 -8 5 -15 10 -15 6 0 10 -5 10 -11 0 -5 -4 -7 -10 -4 -5 3 -10 1 -10 -5
0 -6 -4 -8 -10 -5 -5 3 -8 0 -5 -7 3 -7 -6 -26 -20 -42 -24 -28 -34 -53 -17
-42 4 2 6 -12 4 -31 -4 -33 -3 -36 18 -30 15 4 19 2 13 -4 -5 -5 -24 -11 -41
-13 -17 -3 -40 -7 -51 -11 -11 -3 -30 1 -43 9 -41 26 -104 34 -198 23 -59 -7
-60 -8 -25 -17 30 -8 30 -8 -8 -9 -28 -1 -36 2 -31 12 6 9 4 9 -8 -1 -18 -14
-228 -30 -228 -17 0 17 55 125 64 125 4 0 0 -12 -9 -27 l-18 -28 21 19 c16 14
20 25 15 49 -5 23 -3 28 7 22 9 -5 11 -4 6 4 -12 18 4 139 19 145 8 3 11 -2 8
-15 -4 -13 0 -19 10 -19 10 0 14 -8 12 -25 -2 -23 1 -25 31 -23 18 1 30 6 28
10 -3 4 2 8 10 8 9 0 16 -5 16 -12 0 -9 3 -9 12 0 16 16 31 15 25 0 -3 -9 5
-13 23 -13 24 0 27 4 26 30 -1 17 4 47 11 67 10 31 9 37 -4 42 -12 5 -13 9 -4
20 12 14 5 87 -8 96 -4 3 -8 20 -8 38 -2 55 -2 55 -17 43 -10 -9 -16 -9 -21
-1 -4 6 1 18 11 25 11 8 15 15 10 15 -5 0 -3 7 4 15 10 12 15 13 21 4 5 -9 11
-8 23 4 17 17 22 32 7 22 -15 -9 -19 8 -8 35 5 14 11 30 13 35 1 6 5 18 9 28
5 12 3 17 -6 15 -17 -4 -28 58 -22 125 3 29 5 57 4 62 -6 82 -4 90 15 74 13
-10 17 -10 26 2 7 11 11 11 15 2 8 -22 40 -15 45 11 5 27 -11 55 -29 49 -31
-11 -21 70 13 108 13 14 19 50 23 132 1 10 9 17 21 17 12 0 24 10 30 23 6 15
9 17 9 6 1 -10 13 -20 29 -24 15 -4 21 -10 15 -12 -7 -3 -13 -9 -13 -15 0 -6
7 -7 16 -4 8 3 13 2 10 -3 -7 -10 45 -8 63 3 9 6 9 13 -3 30 -14 22 -13 23 8
19 20 -4 22 -1 18 26 -5 36 -21 42 -23 9 -1 -19 -2 -19 -6 -5 -5 18 -5 18 -20
0 -8 -10 -12 -12 -8 -5 3 6 1 12 -4 12 -6 0 -11 -4 -11 -10 0 -5 -5 -10 -11
-10 -5 0 -7 5 -3 12 4 7 3 8 -4 4 -6 -4 -8 -14 -5 -24 6 -15 4 -15 -9 -4 -9 7
-20 27 -23 43 -4 16 -11 32 -17 35 -7 4 -8 2 -4 -4 4 -7 1 -12 -8 -12 -18 0
-22 25 -6 35 8 5 8 11 0 20 -8 9 -7 14 4 18 8 3 17 -1 21 -10 4 -13 8 -14 18
-4 9 9 9 16 -1 32 -8 12 -9 18 -4 15 6 -3 12 1 16 9 3 8 0 17 -6 21 -7 5 -8 2
-3 -6 5 -9 4 -11 -4 -6 -6 4 -9 12 -5 17 3 5 9 7 14 4 18 -11 18 37 -1 53 -18
16 -27 38 -11 28 19 -12 30 9 15 29 -15 19 -15 19 -9 -5 7 -23 6 -24 -7 -7
-11 14 -16 15 -20 5 -3 -7 -6 -4 -6 7 0 23 21 55 37 55 5 0 13 7 16 16 3 8 2
13 -3 10 -5 -3 -9 4 -10 17 0 12 -4 56 -9 97 -4 41 -7 141 -7 222 0 116 -3
149 -14 153 -8 3 -11 15 -9 30 3 13 2 22 -2 20 -4 -3 -10 4 -13 14 -3 15 -1
18 11 14 10 -4 13 -2 8 5 -8 13 20 6 42 -11 9 -7 12 -2 12 21 0 18 -6 32 -16
36 -14 5 -14 9 -3 22 10 13 10 17 -2 25 -11 7 -11 9 4 9 10 0 20 7 23 15 4 8
12 15 20 15 8 0 14 4 14 10 0 5 -8 7 -17 4 -15 -5 -16 -4 -3 5 22 16 30 13 30
-9 0 -29 20 -25 21 5 1 14 2 38 3 54 0 16 4 32 7 35 3 4 5 -12 4 -33 -1 -22 3
-42 9 -44 7 -3 11 8 11 29 -1 18 2 31 7 27 6 -3 8 15 6 41 -4 45 -17 74 -19
43 -4 -49 -15 -58 -14 -13 0 27 4 33 18 31 9 -2 17 1 17 7 0 6 3 8 7 5 3 -4
13 2 20 13 12 17 12 24 2 36 -6 8 -14 12 -17 9 -3 -2 1 -11 7 -19 8 -10 9 -16
1 -21 -5 -3 -10 -1 -10 5 0 6 -5 8 -12 4 -8 -5 -9 -2 -5 11 4 9 2 24 -4 31
-10 12 -9 13 5 8 12 -5 16 0 16 22 -1 28 -1 28 -15 10 -14 -19 -15 -19 -15 8
0 18 -10 38 -25 52 -22 20 -24 27 -15 45 9 15 19 20 36 16 13 -2 21 -1 19 4
-3 4 1 10 7 12 7 3 -50 6 -128 6 l-141 1 -33 -47z m1240 -38 c0 -9 -9 -15 -21
-15 -18 0 -19 2 -9 15 7 8 16 15 21 15 5 0 9 -7 9 -15z m3790 -37 c0 -12 -3
-18 -7 -14 -11 10 -12 36 -2 36 5 0 9 -10 9 -22z m-3774 -1 c4 -4 -2 -7 -14
-7 -21 0 -27 -9 -23 -39 2 -7 -4 -11 -11 -9 -15 6 -12 34 5 53 12 13 31 14 43
2z m534 -93 c0 -2 -7 -4 -15 -4 -8 0 -15 4 -15 10 0 5 7 7 15 4 8 -4 15 -8 15
-10z m-258 -176 c-6 -6 -14 -9 -17 -6 -3 3 -3 13 1 22 5 12 10 14 17 7 8 -8 8
-14 -1 -23z m-1492 -60 l1 -23 13 23 c11 20 14 21 25 8 7 -8 21 -13 32 -11 11
2 17 0 14 -6 -4 -5 -10 -7 -15 -4 -4 3 -14 -3 -21 -12 -10 -12 -10 -14 -1 -9
7 4 12 1 12 -9 0 -9 5 -13 10 -10 6 4 8 11 5 16 -4 5 -1 9 4 9 12 0 15 -30 4
-31 -5 0 -18 -2 -30 -5 -15 -2 -27 3 -35 16 -7 11 -18 20 -25 20 -7 0 -13 11
-13 25 0 14 5 25 10 25 6 0 10 -10 10 -22z m5226 -243 c1 -7 -4 -16 -12 -19
-11 -4 -12 -1 -5 13 6 10 8 21 6 25 -3 3 -2 4 2 1 4 -3 8 -12 9 -20z m43 -9
c0 -7 -2 -6 -6 2 -2 6 -8 10 -12 8 -4 -3 -8 1 -8 9 0 11 4 12 14 4 7 -6 13
-17 12 -23z m41 14 c0 -5 -4 -10 -10 -10 -5 0 -10 5 -10 10 0 6 5 10 10 10 6
0 10 -4 10 -10z m-3745 -40 c-3 -5 -15 -15 -27 -21 -12 -7 -18 -7 -14 -1 3 6
3 12 -1 15 -5 2 -3 2 4 1 7 -2 15 1 18 6 4 6 11 10 16 10 6 0 7 -4 4 -10z
m3725 -32 c0 -5 -4 -8 -10 -8 -5 0 -10 10 -10 23 0 18 2 19 10 7 5 -8 10 -18
10 -22z m-119 -5 c13 -16 12 -17 -3 -4 -10 7 -18 15 -18 17 0 8 8 3 21 -13z
m-5273 -85 c-2 -5 -8 -9 -13 -9 -5 0 -11 4 -13 9 -1 5 4 9 13 9 9 0 14 -4 13
-9z m-108 -69 c0 -7 -9 -9 -25 -5 -14 4 -25 2 -25 -4 0 -5 9 -10 19 -10 11 0
23 -6 28 -12 9 -16 16 -54 7 -46 -3 4 -17 3 -29 -2 -16 -6 -25 -5 -29 3 -2 7
-5 4 -5 -6 -1 -12 -5 -16 -13 -10 -7 4 -22 8 -33 8 -11 0 -26 4 -34 9 -9 6
-12 5 -8 -1 4 -6 -2 -13 -14 -16 -16 -4 -18 -3 -9 8 8 9 6 14 -5 19 -9 3 -13
2 -10 -3 3 -5 1 -12 -4 -15 -13 -8 -24 25 -12 37 5 5 15 6 23 1 41 -26 74 -2
65 46 -5 23 -2 32 13 40 11 6 20 8 20 5 0 -3 8 -2 18 4 13 8 22 4 40 -14 12
-13 22 -29 22 -36z m5590 26 c0 -8 -7 -15 -15 -15 -16 0 -20 12 -8 23 11 12
23 8 23 -8z m-5560 -87 c0 -18 -2 -20 -9 -8 -6 8 -7 18 -5 22 9 14 14 9 14
-14z m2571 -11 c-10 -9 -11 -8 -5 6 3 10 9 15 12 12 3 -3 0 -11 -7 -18z
m-2780 -65 c-6 -2 -11 -10 -11 -18 0 -9 5 -12 10 -9 6 3 10 0 11 -7 0 -7 5 -2
11 12 l11 25 5 -24 c2 -13 -2 -27 -9 -31 -14 -9 -23 -149 -13 -190 6 -24 7
-24 14 -5 12 29 12 37 -2 29 -10 -6 -10 -4 0 8 9 11 10 18 2 23 -17 10 -1 25
23 21 12 -3 28 -5 35 -5 15 -1 13 -42 -3 -53 -7 -5 -6 -11 1 -15 6 -5 13 -15
16 -23 3 -11 10 -5 21 17 20 38 21 46 5 38 -7 -4 -5 0 5 9 11 8 24 13 30 12 7
-2 8 -1 4 2 -5 2 -1 12 7 21 14 15 14 18 2 18 -8 0 -14 -5 -13 -10 1 -5 -3
-11 -9 -14 -7 -2 -10 6 -6 23 3 19 1 25 -7 20 -18 -12 -13 30 7 45 15 13 16
12 4 -3 -12 -15 -12 -20 1 -33 21 -21 44 -19 57 5 6 11 15 20 20 20 16 0 11
-38 -6 -48 -14 -8 -14 -10 0 -21 8 -7 12 -20 9 -28 -4 -10 -2 -14 4 -10 17 11
22 -17 8 -43 -10 -19 -10 -29 1 -56 13 -30 12 -34 -5 -43 -10 -6 -22 -22 -25
-36 -4 -14 -11 -23 -16 -20 -6 3 -10 1 -10 -5 0 -7 -6 -10 -14 -7 -19 7 -15
-12 10 -48 20 -30 31 -80 14 -70 -10 6 -22 -24 -14 -37 13 -20 5 -121 -11
-138 -8 -9 -15 -26 -15 -37 0 -11 -3 -23 -7 -27 -4 -4 -8 -15 -8 -24 0 -10 -7
-16 -17 -16 -10 1 -18 -2 -18 -8 0 -5 -5 -6 -12 -2 -7 4 -8 3 -4 -5 4 -6 13
-8 19 -4 7 4 6 -1 -2 -11 -12 -15 -12 -17 0 -14 16 3 16 1 5 -67 -10 -59 -23
-88 -37 -80 -8 5 -14 -15 -10 -37 0 -5 -4 -8 -9 -8 -6 0 -10 4 -10 9 0 5 -11
4 -25 -2 -14 -7 -25 -15 -25 -19 0 -4 -23 -10 -51 -14 -32 -4 -62 -16 -81 -32
-24 -21 -43 -26 -94 -28 -35 -2 -66 1 -69 6 -4 6 -18 10 -33 10 -15 0 -42 9
-60 20 -18 11 -44 20 -58 20 -31 0 -42 25 -21 48 21 23 55 25 59 4 3 -16 4
-16 10 0 6 13 1 19 -17 24 -14 3 -25 12 -25 20 0 14 60 51 60 37 0 -5 4 -14 9
-22 8 -13 12 -13 27 0 11 9 15 9 10 2 -4 -7 -2 -13 3 -13 6 0 11 4 11 10 0 12
67 31 85 24 14 -6 15 12 3 31 -4 6 2 11 13 11 10 0 19 -5 19 -12 0 -15 35 -54
49 -54 7 0 10 4 6 9 -3 5 -1 12 5 16 5 3 10 -2 11 -12 1 -10 6 -1 13 20 7 22
16 35 21 30 5 -4 2 1 -8 13 -11 13 -15 28 -11 39 5 13 4 16 -5 11 -7 -5 -11
-17 -8 -27 6 -23 -8 -25 -17 -3 -8 20 0 33 28 45 l21 10 -22 -5 c-13 -2 -28 3
-35 12 -10 12 -10 14 0 8 6 -4 12 -2 12 3 0 6 -7 11 -15 11 -8 0 -15 -9 -15
-21 0 -11 4 -18 9 -14 5 3 12 1 16 -5 3 -5 -1 -10 -10 -10 -9 0 -13 -4 -10
-10 4 -6 -1 -7 -10 -3 -11 4 -15 14 -12 29 2 13 0 21 -4 18 -5 -3 -9 0 -9 5 0
6 -7 11 -16 11 -8 0 -13 4 -10 9 9 14 -42 22 -62 10 -12 -8 -17 -20 -14 -35 2
-13 7 -24 11 -24 4 0 7 -9 7 -20 0 -27 -7 -25 -39 11 -26 30 -37 56 -18 45 16
-10 19 18 3 30 -16 12 -32 86 -25 115 5 18 6 18 18 2 7 -10 11 -26 9 -36 -2
-11 2 -17 9 -14 7 3 11 10 9 16 -4 21 8 11 18 -14 11 -30 29 -32 60 -5 25 22
52 28 32 8 -7 -7 -12 -16 -12 -22 0 -5 6 -2 13 9 17 22 22 131 7 140 -8 5 -7
10 4 18 8 7 16 23 18 37 2 14 8 24 14 23 6 -1 11 5 11 12 0 10 -4 12 -12 5
-12 -10 -33 7 -49 40 -5 9 -2 8 7 -2 8 -10 18 -14 22 -10 5 4 5 2 1 -5 -3 -6
-2 -14 3 -17 5 -3 11 15 13 40 2 25 -1 48 -6 51 -5 4 -6 0 -1 -8 8 -12 6 -12
-8 0 -9 7 -18 11 -18 7 -1 -3 -2 -10 -3 -15 0 -5 -4 -12 -8 -16 -3 -4 -5 1 -4
12 2 10 -2 25 -8 33 -10 13 -9 13 7 1 10 -8 17 -9 17 -3 0 6 -8 16 -17 21 -10
6 -12 11 -5 11 6 0 12 8 12 17 0 32 15 -6 19 -50 1 -4 10 -2 20 5 18 11 18 12
2 27 -9 9 -11 12 -5 8 9 -6 12 3 10 35 -1 37 -4 43 -24 42 -12 -1 -19 2 -17 6
6 9 20 7 48 -5 15 -6 16 -10 5 -17 -9 -6 -5 -8 12 -6 27 3 33 23 16 47 -9 12
-8 13 3 6 10 -5 12 -4 7 4 -4 7 -17 9 -29 6 -16 -5 -18 -4 -8 3 7 5 10 15 7
21 -4 6 -2 11 4 11 7 0 8 6 2 16 -10 18 -4 57 7 50 13 -8 7 39 -6 52 -19 19
-9 29 26 26 24 -1 28 1 24 15 -4 9 -3 13 2 9 9 -8 45 28 45 46 0 6 12 -2 27
-19 15 -17 21 -31 14 -33z m62 23 c-3 -9 -8 -14 -10 -11 -3 3 -2 9 2 15 9 16
15 13 8 -4z m157 -15 c0 -5 -2 -10 -4 -10 -3 0 -8 5 -11 10 -3 6 -1 10 4 10 6
0 11 -4 11 -10z m3284 -29 c3 -5 -2 -15 -12 -22 -15 -12 -16 -12 -5 2 7 9 10
19 6 22 -3 4 -4 7 0 7 3 0 8 -4 11 -9z m34 -23 c-2 -8 10 -11 36 -9 24 2 36
-1 32 -7 -4 -6 -21 -10 -39 -10 -32 1 -50 15 -41 30 8 12 14 10 12 -4z m-3493
-88 c2 -12 1 -20 -2 -16 -4 4 -8 16 -10 28 -4 28 6 18 12 -12z m2742 -12 c-3
-8 -6 -5 -6 6 -1 11 2 17 5 13 3 -3 4 -12 1 -19z m473 -27 c0 -12 -20 -25 -27
-18 -7 7 6 27 18 27 5 0 9 -4 9 -9z m-389 -38 c13 -16 12 -17 -3 -4 -10 7 -18
15 -18 17 0 8 8 3 21 -13z m-3047 -74 c-3 -5 -10 -7 -15 -3 -5 3 -7 10 -3 15
3 5 10 7 15 3 5 -3 7 -10 3 -15z m1061 -109 c3 -5 -1 -10 -10 -10 -9 0 -13 5
-10 10 3 6 8 10 10 10 2 0 7 -4 10 -10z m1300 -100 c-3 -5 -2 -10 3 -10 11 0
-47 -173 -70 -211 -9 -13 -18 -36 -22 -50 -3 -15 -20 -36 -38 -47 -18 -11 -76
-52 -128 -91 -52 -39 -102 -74 -110 -78 -16 -7 -80 -50 -139 -95 -20 -15 -49
-35 -66 -44 -16 -9 -50 -33 -75 -53 -25 -21 -65 -51 -90 -66 -25 -16 -54 -37
-65 -46 -11 -9 -35 -20 -53 -24 -45 -9 -48 7 -28 123 9 54 21 129 27 167 9 62
20 121 35 192 6 29 43 47 128 63 39 7 98 26 133 41 34 16 74 29 87 29 14 0 28
5 31 10 3 6 21 10 39 10 21 0 76 23 153 64 151 80 162 87 192 109 25 18 66 24
56 7z m-618 -22 c-3 -8 -6 -5 -6 6 -1 11 2 17 5 13 3 -3 4 -12 1 -19z m-1767
-69 c0 -5 -4 -9 -10 -9 -5 0 -10 7 -10 16 0 8 5 12 10 9 6 -3 10 -10 10 -16z
m2506 -26 c-10 -10 -19 5 -10 18 6 11 8 11 12 0 2 -7 1 -15 -2 -18z m-2525
-33 c27 15 24 5 -4 -13 -21 -14 -23 -13 -24 7 -1 11 1 15 4 9 3 -9 10 -10 24
-3z m-70 -17 c13 -16 12 -17 -3 -4 -10 7 -18 15 -18 17 0 8 8 3 21 -13z m1159
-27 c0 -19 -25 -66 -35 -66 -14 0 -10 36 8 58 9 11 27 17 27 8z m-1105 -145
c3 -5 1 -12 -5 -16 -5 -3 -10 1 -10 9 0 18 6 21 15 7z m35 0 c0 -6 -4 -13 -10
-16 -5 -3 -10 1 -10 9 0 9 5 16 10 16 6 0 10 -4 10 -9z m-49 -38 c13 -16 12
-17 -3 -4 -10 7 -18 15 -18 17 0 8 8 3 21 -13z m79 -3 c0 -5 -2 -10 -4 -10 -3
0 -8 5 -11 10 -3 6 -1 10 4 10 6 0 11 -4 11 -10z m-120 -10 c0 -5 -2 -10 -4
-10 -3 0 -8 5 -11 10 -3 6 -1 10 4 10 6 0 11 -4 11 -10z m15 -42 c-19 -11 -30
-5 -21 11 4 6 14 7 22 4 15 -5 14 -7 -1 -15z m1042 -106 c-10 -10 -17 -24 -17
-30 0 -7 -4 -12 -10 -12 -5 0 -10 4 -10 10 0 13 42 61 48 55 3 -3 -2 -13 -11
-23z m-62 -52 c3 -5 1 -10 -4 -10 -6 0 -11 5 -11 10 0 6 2 10 4 10 3 0 8 -4
11 -10z m-410 -50 c3 -5 1 -10 -4 -10 -6 0 -11 5 -11 10 0 6 2 10 4 10 3 0 8
-4 11 -10z m-230 -112 c7 -27 -24 -128 -64 -213 -59 -124 -73 -155 -75 -167
-4 -18 -15 -46 -41 -103 -12 -27 -25 -72 -29 -100 -3 -27 -14 -61 -24 -73 -41
-56 -217 -75 -219 -24 -1 22 21 136 52 267 9 39 18 111 21 160 10 164 24 181
186 236 134 45 185 50 193 17z m211 -225 c-8 -15 -15 -25 -16 -21 0 12 23 58
27 54 3 -2 -2 -17 -11 -33z m-96 -24 c0 -6 6 -9 13 -6 7 3 13 -5 13 -19 1 -13
-3 -25 -10 -25 -6 -1 -21 -3 -33 -4 -29 -3 -38 23 -17 46 19 21 34 25 34 8z
m35 -99 c3 -5 1 -10 -4 -10 -6 0 -11 5 -11 10 0 6 2 10 4 10 3 0 8 -4 11 -10z
m-43 -22 c-6 -6 -16 -7 -22 -3 -9 6 -9 9 1 16 17 10 34 0 21 -13z m284 -414
c-3 -8 -2 -12 3 -9 5 3 12 1 16 -4 7 -13 -5 -62 -14 -57 -4 3 -8 -5 -8 -17 -2
-17 0 -19 7 -7 6 9 10 10 10 3 0 -7 -6 -16 -14 -20 -8 -4 -16 -12 -17 -18 -4
-21 -32 -55 -40 -49 -5 3 -6 -2 -3 -10 7 -17 -17 -64 -45 -90 -12 -11 -21 -24
-21 -31 0 -7 -9 -20 -20 -30 -11 -10 -20 -14 -20 -9 0 5 -5 2 -11 -6 -7 -11
-12 -12 -15 -3 -3 7 -11 10 -18 7 -14 -6 -76 62 -76 83 0 7 -9 10 -22 7 -60
-14 -124 -10 -99 6 8 4 9 14 2 31 -7 17 -10 19 -10 7 -1 -10 -8 -18 -17 -18
-12 0 -15 -7 -12 -29 2 -17 1 -28 -3 -25 -4 2 -10 0 -14 -6 -4 -6 -11 -7 -17
-4 -7 4 -8 2 -4 -4 10 -16 -32 -35 -62 -27 -27 7 -59 42 -54 60 1 6 -11 -5
-27 -24 -17 -19 -29 -27 -27 -18 1 9 12 27 24 40 12 13 19 27 15 30 -3 4 1 7
10 7 10 0 17 -7 17 -17 0 -9 3 -14 6 -10 3 3 6 9 6 14 0 4 4 13 9 20 7 7 6 14
-2 19 -7 4 -9 3 -5 -4 3 -6 2 -13 -3 -16 -5 -3 -12 2 -16 12 -6 16 -7 16 -16
0 -5 -10 -9 -20 -8 -24 0 -3 -11 -19 -26 -34 -15 -15 -27 -31 -26 -34 4 -23 0
-27 -16 -15 -11 10 -14 10 -9 2 4 -7 5 -13 2 -13 -3 0 -13 12 -21 28 -9 15
-14 20 -12 12 4 -11 -2 -16 -20 -15 -27 0 -48 28 -39 52 4 11 2 14 -9 10 -8
-4 -21 0 -29 8 -15 15 -46 10 -46 -7 0 -11 -53 -6 -83 7 -16 7 -18 4 -15 -21
2 -22 -2 -31 -22 -41 -54 -25 -153 -34 -172 -15 -5 5 3 24 19 42 18 22 23 35
15 38 -19 6 -14 22 8 22 11 0 27 11 36 25 15 23 91 65 118 65 6 0 19 9 29 20
16 19 54 29 43 11 -3 -5 3 -11 14 -14 11 -3 23 0 27 5 4 7 1 8 -7 3 -8 -5 -11
-3 -8 6 3 10 28 14 94 16 116 1 116 1 110 12 -6 9 50 22 114 26 20 1 45 7 56
13 11 6 49 12 83 13 35 1 86 8 115 14 28 6 106 12 174 12 105 1 123 -1 118
-13z m-1226 -288 c0 -20 -40 -32 -51 -15 -6 10 -1 16 19 20 15 4 28 7 30 8 1
0 2 -5 2 -13z m628 -9 c8 -10 6 -13 -9 -13 -19 0 -24 7 -12 19 8 9 9 9 21 -6z
m298 -137 c25 -10 26 -12 10 -29 -9 -9 -16 -22 -16 -29 0 -13 -148 -175 -195
-213 -32 -26 -83 -88 -122 -148 -20 -31 -48 -74 -63 -96 -15 -22 -35 -63 -44
-90 -9 -28 -34 -75 -56 -104 -22 -29 -40 -58 -40 -65 0 -6 -14 -48 -32 -94
-27 -70 -39 -88 -73 -111 -22 -15 -48 -30 -59 -34 -10 -4 -30 -16 -45 -27 -14
-12 -64 -46 -111 -76 -47 -31 -96 -68 -110 -82 -14 -15 -40 -37 -58 -48 -33
-21 -114 -93 -257 -229 -40 -38 -91 -86 -113 -106 -22 -21 -52 -58 -67 -84
-26 -44 -27 -48 -13 -83 8 -21 13 -43 10 -50 -4 -14 -74 -52 -94 -52 -21 0
-239 -70 -298 -96 -30 -13 -80 -31 -110 -40 -30 -9 -59 -21 -64 -25 -6 -5 -18
-9 -28 -9 -9 0 -34 -10 -55 -22 -59 -33 -141 -72 -218 -103 -95 -38 -109 -32
-158 69 -39 81 -55 154 -43 200 7 29 59 59 121 71 21 3 52 13 67 21 15 8 36
14 48 14 11 0 31 6 43 14 12 7 48 17 81 20 32 4 64 10 70 13 6 4 18 8 26 10
41 5 358 101 437 132 24 9 43 19 43 23 0 4 -6 5 -13 2 -8 -3 -31 -1 -53 4 -27
6 -65 3 -122 -8 -46 -9 -97 -14 -114 -12 -21 3 -35 0 -42 -10 -12 -17 -87 -44
-211 -77 -44 -12 -100 -28 -125 -36 -64 -19 -205 -45 -250 -45 -49 0 -74 27
-65 69 9 40 21 46 141 70 98 19 169 27 374 39 96 6 105 9 105 27 0 15 -9 21
-40 27 -69 13 -296 10 -390 -5 -79 -13 -115 -15 -162 -9 -20 3 -36 70 -28 120
11 75 64 230 96 280 16 25 29 54 29 63 0 9 20 38 45 65 25 26 45 51 45 55 0
10 137 122 175 142 17 9 48 33 70 53 21 20 61 47 88 61 27 13 63 38 80 54 52
49 228 174 287 204 30 16 63 35 72 43 23 19 48 8 48 -20 0 -13 -12 -59 -25
-103 -22 -70 -27 -109 -35 -322 -7 -168 -7 -255 0 -288 6 -26 8 -55 6 -64 -8
-24 27 -158 47 -181 36 -43 89 -19 122 53 59 134 147 306 174 342 17 22 36 51
43 65 7 14 24 41 39 60 14 19 36 54 47 77 12 22 40 62 62 88 22 25 40 49 40
53 0 11 46 58 134 137 43 39 99 90 124 114 26 24 88 70 137 102 50 32 101 67
115 77 123 94 254 170 325 188 62 15 155 17 191 4z"/>
<path d="M2704 8184 c1 -8 4 -15 7 -16 2 -2 3 -1 2 1 -2 2 2 9 7 16 7 8 5 12
-4 12 -8 0 -13 -6 -12 -13z"/>
<path d="M2705 8043 c0 -12 3 -23 6 -23 4 0 3 -17 -2 -37 -11 -48 -11 -53 -1
-53 8 0 10 9 16 86 2 33 0 51 -8 51 -6 0 -11 -11 -11 -24z"/>
<path d="M2793 7955 c0 -22 2 -30 4 -17 2 12 2 30 0 40 -3 9 -5 -1 -4 -23z"/>
<path d="M2635 7940 c-3 -5 -1 -10 4 -10 6 0 11 5 11 10 0 6 -2 10 -4 10 -3 0
-8 -4 -11 -10z"/>
<path d="M2881 7936 c-6 -7 -4 -16 5 -24 12 -11 14 -10 14 3 0 8 5 15 10 15 6
0 10 4 10 8 0 12 -29 11 -39 -2z"/>
<path d="M2789 7778 c-5 -18 -6 -38 -1 -34 7 8 12 36 6 36 -2 0 -4 -1 -5 -2z"/>
<path d="M2876 7732 c-7 -12 -16 -65 -10 -59 3 3 6 9 6 14 0 4 4 18 9 31 8 21
5 30 -5 14z"/>
<path d="M2820 7720 c0 -5 5 -10 11 -10 5 0 7 5 4 10 -3 6 -8 10 -11 10 -2 0
-4 -4 -4 -10z"/>
<path d="M2765 7710 c-4 -6 -1 -18 7 -27 11 -15 11 -16 -4 -10 -11 4 -17 2
-15 -6 1 -7 -4 -11 -10 -9 -7 1 -12 -1 -12 -5 1 -5 1 -21 0 -38 -1 -23 -4 -26
-11 -15 -5 8 -12 11 -17 7 -9 -10 16 -27 31 -21 6 2 18 14 25 27 13 21 13 21
-4 7 -16 -13 -17 -12 -13 5 2 11 10 19 17 17 7 -1 10 2 6 8 -3 5 1 10 9 10 9
0 16 9 16 21 0 11 -4 17 -10 14 -5 -3 -10 -2 -10 4 0 5 6 12 13 14 9 4 9 6 0
6 -6 1 -15 -4 -18 -9z"/>
<path d="M2905 7710 c3 -5 8 -10 11 -10 2 0 4 5 4 10 0 6 -5 10 -11 10 -5 0
-7 -4 -4 -10z"/>
<path d="M2726 7702 c-3 -5 1 -9 9 -9 8 0 12 4 9 9 -3 4 -7 8 -9 8 -2 0 -6 -4
-9 -8z"/>
<path d="M2680 7638 c0 -28 2 -49 4 -47 9 9 13 99 5 99 -5 0 -9 -23 -9 -52z"/>
<path d="M2895 7680 c-3 -5 -1 -10 4 -10 6 0 11 5 11 10 0 6 -2 10 -4 10 -3 0
-8 -4 -11 -10z"/>
<path d="M2803 7663 c0 -6 4 -10 9 -7 4 3 8 -2 8 -11 0 -10 5 -13 12 -9 7 4 8
3 4 -5 -4 -6 -12 -9 -17 -6 -15 10 -10 -29 6 -51 11 -14 14 -15 15 -4 0 11 2
12 8 2 6 -9 14 -6 30 11 22 23 22 23 3 44 -11 12 -17 23 -14 27 3 3 -4 4 -15
1 -12 -2 -25 1 -28 7 -4 6 -2 8 4 4 6 -3 13 -3 16 2 2 4 -6 8 -18 8 -12 0 -23
-6 -23 -13z"/>
<path d="M2706 7644 c-4 -9 -4 -19 -1 -22 2 -3 7 3 11 12 4 9 4 19 1 22 -2 3
-7 -3 -11 -12z"/>
<path d="M2662 7610 c0 -14 2 -19 5 -12 2 6 2 18 0 25 -3 6 -5 1 -5 -13z"/>
<path d="M2779 7565 c-3 -35 -16 -58 -29 -50 -5 3 -8 -3 -7 -14 1 -19 2 -18
22 3 18 19 33 76 20 76 -3 0 -6 -7 -6 -15z"/>
<path d="M2705 7550 c-4 -6 -3 -10 2 -9 4 1 10 0 13 -1 16 -6 41 -7 35 -2 -4
4 -10 7 -13 7 -4 0 -12 4 -19 8 -6 4 -15 3 -18 -3z"/>
<path d="M2830 7539 c0 -5 -4 -8 -8 -5 -5 3 -9 -1 -9 -8 0 -8 7 -13 16 -11 9
1 22 -5 29 -14 10 -13 12 -14 10 -1 -2 9 3 14 12 12 8 -2 11 0 7 5 -5 4 -16 8
-25 8 -9 0 -16 6 -14 13 1 6 -2 12 -8 12 -5 0 -10 -5 -10 -11z"/>
<path d="M2560 7530 c0 -5 5 -10 10 -10 6 0 10 5 10 10 0 6 -4 10 -10 10 -5 0
-10 -4 -10 -10z"/>
<path d="M2685 7519 c-4 -6 -5 -12 -2 -15 2 -3 7 2 10 11 7 17 1 20 -8 4z"/>
<path d="M2836 7491 c-8 -12 3 -41 15 -41 12 0 12 37 0 45 -5 3 -12 1 -15 -4z"/>
<path d="M2877 7483 c-4 -3 -7 -15 -7 -25 0 -10 -4 -18 -10 -18 -5 0 -10 -5
-10 -11 0 -8 4 -9 13 0 8 6 17 8 20 4 4 -3 7 8 7 25 0 33 -2 37 -13 25z"/>
<path d="M2751 7467 c-8 -10 -7 -14 2 -14 8 0 14 6 14 14 0 7 -1 13 -2 13 -2
0 -8 -6 -14 -13z"/>
<path d="M2480 7451 c0 -5 5 -13 10 -16 6 -3 10 -2 10 4 0 5 -4 13 -10 16 -5
3 -10 2 -10 -4z"/>
<path d="M2450 7439 c0 -5 5 -7 10 -4 6 3 10 8 10 11 0 2 -4 4 -10 4 -5 0 -10
-5 -10 -11z"/>
<path d="M2545 7421 c-6 -11 13 -26 22 -17 4 3 1 6 -6 6 -7 0 -9 5 -6 10 3 6
4 10 1 10 -3 0 -7 -4 -11 -9z"/>
<path d="M2630 7380 c-9 -6 -10 -10 -3 -10 6 0 15 5 18 10 8 12 4 12 -15 0z"/>
<path d="M2652 7338 c-18 -18 -15 -25 17 -36 20 -7 32 -7 40 1 13 13 15 41 2
32 -5 -3 -12 -1 -16 5 -8 14 -28 13 -43 -2z"/>
<path d="M2289 7133 c-13 -16 -12 -17 4 -4 9 7 17 15 17 17 0 8 -8 3 -21 -13z"/>
<path d="M2391 7131 c-10 -6 -9 -10 3 -14 8 -3 18 -2 21 3 8 13 -9 20 -24 11z"/>
<path d="M2674 6043 c3 -8 1 -11 -4 -8 -6 3 -10 1 -10 -4 0 -6 7 -11 15 -11 8
0 15 -6 15 -12 0 -7 7 0 15 16 19 36 20 34 -11 34 -18 0 -24 -5 -20 -15z"/>
<path d="M2989 6038 c-1 -2 -2 -16 -4 -32 -2 -27 -1 -28 11 -11 8 10 14 22 14
26 0 8 -19 23 -21 17z"/>
<path d="M2545 5999 c0 -15 4 -25 9 -21 5 3 7 -2 3 -11 -3 -9 -2 -19 4 -23 6
-4 5 -12 -3 -22 -12 -15 -11 -16 5 -3 11 9 14 18 8 24 -11 11 -3 39 10 31 5
-3 6 -10 3 -16 -5 -7 -2 -8 5 -4 7 5 10 11 7 14 -3 3 1 13 10 23 12 14 13 18
2 25 -7 4 -10 4 -6 -1 10 -11 -11 -37 -24 -29 -5 3 -4 13 4 22 12 16 11 16 -6
2 -18 -13 -19 -13 -14 1 4 9 1 16 -6 16 -6 0 -12 -13 -11 -28z"/>
<path d="M3145 5999 c-11 -17 1 -21 15 -4 8 9 8 15 2 15 -6 0 -14 -5 -17 -11z"/>
<path d="M2620 5985 c-7 -9 -11 -17 -9 -20 3 -2 10 5 17 15 14 24 10 26 -8 5z"/>
<path d="M2710 5970 l-35 -7 32 -2 c17 0 35 4 38 9 3 6 5 9 3 9 -2 -1 -19 -5
-38 -9z"/>
<path d="M2743 5935 c0 -8 4 -12 9 -9 4 3 8 9 8 15 0 5 -4 9 -8 9 -5 0 -9 -7
-9 -15z"/>
<path d="M3055 5940 c3 -5 8 -10 11 -10 2 0 4 5 4 10 0 6 -5 10 -11 10 -5 0
-7 -4 -4 -10z"/>
<path d="M2435 5911 c2 -9 4 -18 4 -20 1 -2 8 2 16 9 16 14 13 23 -9 26 -8 1
-13 -5 -11 -15z"/>
<path d="M2955 5820 c10 -11 20 -20 23 -20 3 0 -3 9 -13 20 -10 11 -20 20 -23
20 -3 0 3 -9 13 -20z"/>
<path d="M3440 9221 c0 -5 -8 -8 -17 -7 -24 1 -27 -31 -9 -84 10 -29 12 -48 5
-56 -6 -7 -5 -15 4 -22 10 -9 14 -3 16 29 1 23 -4 48 -11 57 -7 9 -8 13 -3 10
6 -3 19 4 30 15 11 11 13 16 5 12 -12 -6 -11 -4 2 10 16 17 44 12 33 -6 -4 -5
-1 -9 5 -9 6 0 8 -4 5 -10 -3 -5 -2 -10 4 -10 5 0 9 13 9 30 -1 16 -5 27 -10
24 -4 -3 -8 2 -8 10 0 11 -9 16 -30 16 -16 0 -30 -4 -30 -9z"/>
<path d="M3649 9218 c9 -12 10 -18 2 -18 -6 0 -11 -5 -11 -12 0 -6 9 -3 20 7
11 10 20 23 19 29 0 6 -3 5 -6 -2 -4 -10 -8 -10 -21 0 -15 12 -16 11 -3 -4z"/>
<path d="M3829 9223 c-1 -5 -2 -26 -3 -48 -1 -32 -5 -40 -18 -39 -10 1 -18 -2
-18 -6 0 -4 -8 -7 -17 -6 -10 0 -18 -5 -19 -11 -1 -7 -2 -18 -3 -24 0 -5 -5
-7 -11 -4 -5 3 -7 0 -4 -9 3 -8 -3 -19 -14 -25 -11 -6 -22 -20 -25 -31 -3 -11
-1 -18 3 -15 11 7 62 -20 111 -57 20 -16 42 -28 49 -28 7 0 10 -7 6 -17 -5
-15 -4 -15 9 1 8 11 15 14 15 8 0 -7 3 -11 8 -11 27 5 52 -2 46 -13 -5 -7 -3
-8 6 -3 21 13 31 -17 14 -44 -9 -13 -11 -20 -5 -17 6 4 11 3 11 -1 0 -5 9 -9
20 -9 11 0 20 6 20 14 0 9 -7 11 -22 7 -18 -5 -19 -4 -7 4 9 6 16 27 17 51 2
27 -1 39 -8 35 -6 -4 -10 4 -10 19 0 18 4 24 14 20 8 -3 17 0 22 7 4 7 2 15
-4 17 -7 2 -12 10 -12 18 0 8 -4 14 -8 14 -4 0 -8 8 -9 18 -1 9 -2 22 -4 27
-3 15 24 75 34 75 12 0 67 56 67 68 0 6 6 13 13 15 6 3 -50 6 -125 6 -76 1
-139 -2 -139 -6z"/>
<path d="M4235 9220 c3 -5 10 -10 16 -10 5 0 9 5 9 10 0 6 -7 10 -16 10 -8 0
-12 -4 -9 -10z"/>
<path d="M4900 9226 c0 -2 9 -6 20 -9 11 -3 20 -1 20 4 0 5 -9 9 -20 9 -11 0
-20 -2 -20 -4z"/>
<path d="M6528 9211 c-15 -15 -17 -33 -14 -127 2 -60 4 -117 5 -126 1 -10 7
-15 15 -12 10 4 13 -13 13 -83 0 -48 2 -112 4 -140 3 -42 1 -53 -11 -53 -13 0
-13 -1 0 -10 12 -8 12 -10 -5 -10 -19 -1 -19 -1 -2 -11 9 -6 15 -14 12 -20 -4
-5 -1 -9 4 -9 6 0 11 4 11 10 0 5 10 9 22 7 20 -2 22 3 23 38 0 47 10 53 78
50 39 -2 48 0 46 14 -1 9 -1 25 0 36 2 19 2 19 12 2 6 -10 8 -26 4 -35 -4 -11
-3 -14 4 -7 5 6 11 30 13 55 2 25 8 52 13 60 8 13 7 13 -9 1 -16 -13 -18 -13
-16 0 4 28 0 50 -9 44 -14 -8 -40 87 -28 102 5 7 5 18 1 24 -4 8 -3 9 4 5 8
-5 12 2 12 19 0 14 -7 28 -15 31 -8 4 -15 10 -15 15 0 4 6 6 14 3 8 -3 17 -1
20 4 3 5 -2 9 -11 8 -9 0 -18 5 -21 13 -3 8 0 11 7 7 7 -5 9 -1 5 9 -5 12 -1
15 18 11 25 -4 27 -2 31 49 1 17 7 30 14 30 6 0 14 3 18 6 13 13 -187 10 -203
-3 -12 -10 -14 -10 -8 0 11 19 -36 14 -56 -7z m162 -133 c0 -18 -2 -20 -9 -8
-6 8 -7 18 -5 22 9 14 14 9 14 -14z m-96 -204 c7 -18 0 -34 -15 -34 -5 0 -9
11 -9 25 0 28 15 34 24 9z m-37 -86 c-3 -7 -5 -2 -5 12 0 14 2 19 5 13 2 -7 2
-19 0 -25z m88 -38 c-3 -5 -16 -10 -28 -9 -20 1 -20 2 3 9 14 4 26 8 28 9 2 1
0 -3 -3 -9z"/>
<path d="M6885 9220 c-4 -6 -10 -8 -15 -5 -5 3 -7 -10 -4 -29 4 -33 3 -34 -25
-31 -28 4 -29 2 -36 -53 -4 -31 -11 -65 -16 -74 -14 -26 6 -22 24 5 l16 22 0
-24 c1 -21 3 -22 18 -10 9 8 14 9 11 4 -4 -7 3 -11 17 -11 13 0 22 3 20 6 -5
7 22 56 29 53 3 -2 8 -2 11 -2 3 1 13 2 23 3 9 1 23 5 30 9 15 10 5 30 -11 21
-7 -4 -9 -4 -5 0 4 5 -2 17 -13 29 -21 23 -24 37 -9 37 6 0 10 -4 10 -10 0 -5
7 -10 15 -10 8 0 15 5 15 11 0 5 -5 7 -10 4 -15 -9 -25 24 -11 38 13 13 14 27
2 27 -5 0 -12 -10 -16 -22 l-8 -23 -4 23 c-3 15 -11 22 -28 22 -13 0 -27 -5
-30 -10z m5 -184 c0 -3 -4 -8 -10 -11 -5 -3 -10 -1 -10 4 0 6 5 11 10 11 6 0
10 -2 10 -4z"/>
<path d="M7641 9202 c-1 -24 -7 -35 -26 -44 -14 -6 -25 -15 -25 -19 0 -4 -8
-6 -17 -5 -10 2 -28 -1 -40 -7 -17 -7 -27 -6 -40 4 -9 8 -14 9 -10 2 4 -6 3
-14 -3 -18 -6 -4 -7 -11 -4 -17 4 -6 0 -14 -7 -19 -10 -6 -2 -9 24 -9 20 0 37
-5 37 -10 0 -7 -19 -9 -50 -7 -44 4 -50 3 -50 -14 0 -10 5 -19 10 -19 6 0 10
5 10 10 0 6 6 5 14 -2 8 -7 11 -17 8 -23 -3 -6 0 -6 9 1 16 12 39 13 39 2 0
-5 0 -13 0 -20 0 -6 -7 -3 -16 8 -14 18 -14 18 -3 -6 7 -14 12 -26 11 -27 -9
-14 4 -23 31 -23 25 0 29 -3 17 -11 -13 -9 -13 -10 0 -6 17 4 21 33 3 30 -6
-1 -16 4 -22 11 -10 12 -5 13 30 5 47 -11 54 -8 45 17 -5 13 -9 15 -18 6 -17
-17 -26 -15 -38 8 -7 14 -7 20 0 20 5 0 10 -7 10 -15 0 -8 5 -15 11 -15 5 0 7
5 4 10 -4 6 -3 19 1 28 7 17 10 26 13 40 1 4 5 1 10 -6 6 -11 17 -11 50 -2 45
12 47 16 29 55 -10 22 -9 28 3 36 8 5 9 9 3 9 -5 0 -19 7 -30 16 -10 8 -13 13
-6 9 8 -4 12 1 12 15 0 12 -4 19 -9 16 -5 -4 -12 0 -14 6 -3 7 -6 -2 -6 -20z"/>
<path d="M7860 9221 c0 -5 7 -12 16 -15 22 -9 24 -8 24 9 0 8 -9 15 -20 15
-11 0 -20 -4 -20 -9z"/>
<path d="M7401 9204 c6 -7 16 -11 21 -8 11 7 3 17 -18 20 -12 2 -13 -1 -3 -12z"/>
<path d="M4107 9196 c-4 -10 -5 -21 -2 -24 9 -9 17 6 13 25 -3 17 -4 17 -11
-1z"/>
<path d="M6821 9196 c-8 -10 -9 -16 -1 -21 6 -4 10 -3 9 2 -4 22 2 25 17 7 14
-18 15 -18 4 4 -13 26 -14 26 -29 8z"/>
<path d="M3610 9185 c0 -8 2 -15 4 -15 2 0 6 7 10 15 3 8 1 15 -4 15 -6 0 -10
-7 -10 -15z"/>
<path d="M7430 9175 c0 -3 9 -15 19 -27 17 -17 19 -18 17 -3 -2 16 -36 44 -36
30z"/>
<path d="M4096 9143 c-6 -14 -5 -15 5 -6 7 7 10 15 7 18 -3 3 -9 -2 -12 -12z"/>
<path d="M4230 9150 c0 -5 5 -10 11 -10 5 0 7 5 4 10 -3 6 -8 10 -11 10 -2 0
-4 -4 -4 -10z"/>
<path d="M4053 9143 c-17 -6 -17 -23 0 -23 8 0 14 7 14 15 0 8 -1 15 -1 14 -1
0 -7 -3 -13 -6z"/>
<path d="M8035 9140 c3 -5 8 -10 11 -10 2 0 4 5 4 10 0 6 -5 10 -11 10 -5 0
-7 -4 -4 -10z"/>
<path d="M4960 9121 c0 -6 4 -13 10 -16 6 -3 7 1 4 9 -7 18 -14 21 -14 7z"/>
<path d="M7009 9120 c-3 -19 -5 -25 -23 -63 -13 -26 -21 -34 -27 -26 -13 21
-39 19 -39 -3 0 -16 3 -18 14 -9 9 8 16 8 20 2 5 -7 41 -8 76 -2 2 1 -1 6 -6
11 -6 6 -9 31 -6 55 2 25 1 45 -2 45 -3 0 -7 -4 -7 -10z m-2 -67 c-4 -3 -2
-12 4 -19 10 -12 7 -12 -30 -5 -5 1 20 31 27 31 3 0 2 -3 -1 -7z"/>
<path d="M3725 9110 c-3 -5 1 -10 10 -10 9 0 13 5 10 10 -3 6 -8 10 -10 10 -2
0 -7 -4 -10 -10z"/>
<path d="M8002 9104 c3 -17 21 -21 26 -6 1 5 -4 12 -13 16 -11 4 -15 1 -13
-10z"/>
<path d="M4750 9096 c0 -2 7 -7 16 -10 8 -3 12 -2 9 4 -6 10 -25 14 -25 6z"/>
<path d="M7746 9088 c3 -5 10 -6 15 -3 13 9 11 12 -6 12 -8 0 -12 -4 -9 -9z"/>
<path d="M7849 9073 l-24 -28 26 23 c14 12 29 19 34 15 4 -5 5 -2 1 5 -9 16
-9 16 -37 -15z"/>
<path d="M5465 9079 c-4 -6 -5 -12 -2 -15 2 -3 7 2 10 11 7 17 1 20 -8 4z"/>
<path d="M4226 9073 c-11 -11 -6 -23 9 -23 8 0 15 4 15 9 0 13 -16 22 -24 14z"/>
<path d="M7931 9064 c0 -11 3 -14 6 -6 3 7 2 16 -1 19 -3 4 -6 -2 -5 -13z"/>
<path d="M6070 9054 c-11 -12 -11 -15 0 -12 8 2 16 -10 21 -30 4 -19 12 -39
19 -45 10 -10 10 -7 1 10 -6 12 -11 33 -11 47 0 14 -6 26 -12 26 -9 0 -8 4 2
10 8 5 10 10 4 10 -6 0 -17 -7 -24 -16z"/>
<path d="M7090 9067 c0 -2 6 -10 14 -16 11 -9 16 -9 22 1 4 7 4 10 -1 6 -4 -4
-14 -3 -22 3 -7 6 -13 9 -13 6z"/>
<path d="M5105 9029 c-4 -6 -5 -12 -2 -15 2 -3 7 2 10 11 7 17 1 20 -8 4z"/>
<path d="M7041 9024 c0 -11 3 -14 6 -6 3 7 2 16 -1 19 -3 4 -6 -2 -5 -13z"/>
<path d="M7130 9029 c0 -5 5 -7 10 -4 6 3 10 8 10 11 0 2 -4 4 -10 4 -5 0 -10
-5 -10 -11z"/>
<path d="M4090 9020 c0 -4 11 -10 25 -12 13 -3 22 -2 20 2 -7 11 -45 20 -45
10z"/>
<path d="M4987 9015 c3 -8 9 -12 14 -9 12 7 11 11 -5 17 -10 4 -13 1 -9 -8z"/>
<path d="M6056 9021 c-4 -5 -2 -12 3 -15 5 -4 12 -2 15 3 4 5 2 12 -3 15 -5 4
-12 2 -15 -3z"/>
<path d="M7410 9009 c0 -19 -2 -21 -10 -9 -11 18 -12 3 -1 -25 7 -17 9 -16 16
13 4 18 4 36 1 39 -3 4 -6 -5 -6 -18z"/>
<path d="M4945 8979 c-3 -4 2 -6 10 -5 21 3 28 13 10 13 -9 0 -18 -4 -20 -8z"/>
<path d="M5076 8968 c3 -5 10 -6 15 -3 13 9 11 12 -6 12 -8 0 -12 -4 -9 -9z"/>
<path d="M7926 8968 c3 -5 10 -6 15 -3 13 9 11 12 -6 12 -8 0 -12 -4 -9 -9z"/>
<path d="M4723 8956 c-3 -6 -3 -8 2 -4 4 4 13 3 20 -2 8 -7 12 -5 12 3 0 16
-25 18 -34 3z"/>
<path d="M4847 8963 c-10 -9 -9 -23 1 -23 5 0 9 7 9 15 0 17 -1 18 -10 8z"/>
<path d="M3774 8949 c-3 -6 -2 -15 3 -20 5 -5 9 -1 9 11 0 23 -2 24 -12 9z"/>
<path d="M6094 8935 c0 -19 3 -22 13 -13 10 8 10 14 2 24 -15 18 -15 18 -15
-11z"/>
<path d="M7431 8948 c-1 -10 -8 -18 -16 -18 -8 0 -15 -7 -15 -15 0 -8 6 -15
13 -15 9 0 9 -2 0 -8 -7 -4 -11 -17 -10 -29 1 -17 4 -19 14 -11 7 6 13 18 13
28 0 25 44 52 59 37 9 -9 11 -8 6 6 -8 20 -17 21 -33 5 -9 -9 -14 -6 -21 13
-7 17 -10 19 -10 7z m9 -32 c0 -11 -19 -15 -25 -6 -3 5 1 10 9 10 9 0 16 -2
16 -4z"/>
<path d="M5056 8935 c4 -8 8 -15 10 -15 2 0 4 7 4 15 0 8 -4 15 -10 15 -5 0
-7 -7 -4 -15z"/>
<path d="M6852 8925 c0 -16 2 -22 5 -12 2 9 2 23 0 30 -3 6 -5 -1 -5 -18z"/>
<path d="M3507 8923 c3 -10 2 -15 -2 -11 -5 5 -14 -2 -20 -15 -10 -18 -8 -27
10 -52 12 -16 21 -38 19 -47 -1 -10 2 -18 8 -18 6 0 7 8 4 18 -4 12 -1 10 11
-5 l18 -23 0 40 c1 29 -2 36 -11 29 -8 -7 -14 -6 -19 1 -3 6 -11 7 -17 4 -8
-5 -9 -1 -4 11 13 35 17 85 7 85 -6 0 -8 -8 -4 -17z m-4 -43 c-3 -12 -8 -19
-11 -16 -5 6 5 36 12 36 2 0 2 -9 -1 -20z m39 -55 c2 3 5 -2 5 -10 0 -19 0
-19 -23 7 -12 14 -13 18 -3 10 9 -6 18 -10 21 -7z"/>
<path d="M4695 8931 c-3 -5 -2 -12 3 -15 5 -3 9 1 9 9 0 17 -3 19 -12 6z"/>
<path d="M5014 8932 c4 -3 14 -7 22 -8 9 -1 13 0 10 4 -4 3 -14 7 -22 8 -9 1
-13 0 -10 -4z"/>
<path d="M6824 8913 c1 -19 5 -28 10 -23 6 6 5 18 -1 32 -10 21 -10 21 -9 -9z"/>
<path d="M4789 8928 c-5 -18 -6 -38 -1 -34 7 8 12 36 6 36 -2 0 -4 -1 -5 -2z"/>
<path d="M6157 8915 c-6 -15 10 -32 20 -21 4 3 1 6 -5 6 -6 0 -9 7 -6 15 4 8
4 15 1 15 -3 0 -7 -7 -10 -15z"/>
<path d="M6730 8916 c0 -9 5 -16 10 -16 6 0 10 4 10 9 0 6 -4 13 -10 16 -5 3
-10 -1 -10 -9z"/>
<path d="M7521 8914 c0 -11 3 -14 6 -6 3 7 2 16 -1 19 -3 4 -6 -2 -5 -13z"/>
<path d="M7603 8915 c-3 -9 -3 -18 -1 -21 3 -3 8 4 11 16 6 23 -1 27 -10 5z"/>
<path d="M5003 8905 c0 -8 4 -12 9 -9 5 3 6 10 3 15 -9 13 -12 11 -12 -6z"/>
<path d="M4704 8885 c-4 -8 -11 -12 -17 -8 -6 3 -7 1 -3 -5 10 -16 14 -15 26
8 6 11 8 20 5 20 -3 0 -8 -7 -11 -15z"/>
<path d="M7950 8890 c19 -13 30 -13 30 0 0 6 -10 10 -22 10 -19 0 -20 -2 -8
-10z"/>
<path d="M5010 8878 c0 -3 6 -11 14 -17 10 -9 17 -7 27 6 12 16 12 17 -2 6
-12 -10 -18 -10 -27 -1 -7 7 -12 9 -12 6z"/>
<path d="M8003 8873 c9 -2 25 -2 35 0 9 3 1 5 -18 5 -19 0 -27 -2 -17 -5z"/>
<path d="M3395 8860 c-10 -16 7 -31 23 -21 10 6 10 10 -2 20 -10 9 -16 9 -21
1z"/>
<path d="M4735 8861 c-3 -5 -2 -12 3 -15 5 -3 9 1 9 9 0 17 -3 19 -12 6z"/>
<path d="M5001 8837 c-8 -10 -7 -14 2 -14 8 0 14 6 14 14 0 7 -1 13 -2 13 -2
0 -8 -6 -14 -13z"/>
<path d="M4803 8825 c0 -8 3 -13 5 -10 3 3 10 0 17 -5 8 -7 12 -5 12 5 0 8 -3
13 -5 10 -3 -3 -10 0 -17 5 -8 7 -12 5 -12 -5z"/>
<path d="M4979 8793 c-8 -9 -9 -14 -2 -10 7 5 13 -1 16 -15 3 -14 4 -11 4 10
-1 37 -1 37 -18 15z"/>
<path d="M5070 8795 c0 -8 4 -15 10 -15 5 0 7 7 4 15 -4 8 -8 15 -10 15 -2 0
-4 -7 -4 -15z"/>
<path d="M6160 8795 c-8 -9 -8 -15 -2 -15 12 0 26 19 19 26 -2 2 -10 -2 -17
-11z"/>
<path d="M4825 8781 c-3 -5 -2 -12 3 -15 5 -3 9 1 9 9 0 17 -3 19 -12 6z"/>
<path d="M7786 8773 c-3 -3 -3 -10 0 -14 7 -12 44 -12 44 0 0 10 -36 21 -44
14z"/>
<path d="M7845 8743 c0 -35 24 -95 25 -65 0 7 4 11 9 8 5 -4 7 3 4 14 -3 11
-9 20 -13 20 -10 0 -7 26 3 36 4 4 7 -4 7 -17 0 -19 2 -21 10 -9 8 12 10 12
10 1 0 -8 3 -11 6 -8 4 4 2 13 -5 21 -9 11 -9 15 1 19 7 3 3 6 -9 6 -12 1 -28
3 -35 6 -11 4 -14 -4 -13 -32z"/>
<path d="M3285 8760 c-3 -5 -1 -10 4 -10 6 0 11 5 11 10 0 6 -2 10 -4 10 -3 0
-8 -4 -11 -10z"/>
<path d="M3510 8759 c0 -5 5 -7 10 -4 6 3 10 8 10 11 0 2 -4 4 -10 4 -5 0 -10
-5 -10 -11z"/>
<path d="M4527 8755 c-4 -8 -2 -17 3 -20 6 -4 10 3 10 14 0 25 -6 27 -13 6z"/>
<path d="M4554 8758 c-4 -7 -4 -10 1 -6 4 4 15 2 24 -5 14 -11 14 -10 2 6 -16
20 -18 21 -27 5z"/>
<path d="M4963 8758 c-11 -19 -13 -39 -1 -32 5 3 7 9 4 12 -3 3 -1 11 5 19 6
7 9 13 6 13 -3 0 -9 -6 -14 -12z"/>
<path d="M3345 8751 c-3 -5 -2 -12 3 -15 5 -3 9 1 9 9 0 17 -3 19 -12 6z"/>
<path d="M7710 8750 c0 -5 5 -10 11 -10 5 0 7 5 4 10 -3 6 -8 10 -11 10 -2 0
-4 -4 -4 -10z"/>
<path d="M3286 8728 c3 -5 10 -6 15 -3 13 9 11 12 -6 12 -8 0 -12 -4 -9 -9z"/>
<path d="M5433 8723 c3 -15 1 -20 -9 -16 -9 3 -14 -2 -14 -15 0 -26 27 -36 39
-14 6 12 4 25 -6 42 -13 23 -14 23 -10 3z"/>
<path d="M7734 8728 c-5 -7 -3 -8 6 -3 10 6 12 1 8 -19 -3 -14 -1 -29 3 -32 5
-3 9 4 9 15 0 10 5 21 12 23 15 5 1 28 -17 28 -8 0 -17 -5 -21 -12z"/>
<path d="M3414 8708 c-12 -37 -13 -48 -2 -48 6 0 8 6 5 13 -3 8 0 14 7 14 8 0
11 -9 8 -24 -2 -12 -7 -21 -11 -18 -4 2 -8 -17 -9 -43 0 -26 2 -41 5 -33 4 11
7 11 14 0 6 -10 8 -7 6 8 0 12 -6 19 -12 15 -5 -3 -4 2 4 11 10 13 11 17 1 17
-9 0 -9 5 3 18 18 19 16 59 -3 54 -7 -2 -9 5 -5 18 3 11 4 20 1 20 -2 0 -8
-10 -12 -22z"/>
<path d="M4810 8721 c0 -6 4 -13 10 -16 6 -3 7 1 4 9 -7 18 -14 21 -14 7z"/>
<path d="M6325 8720 c3 -5 8 -10 11 -10 2 0 4 5 4 10 0 6 -5 10 -11 10 -5 0
-7 -4 -4 -10z"/>
<path d="M4790 8711 c0 -6 4 -13 10 -16 6 -3 7 1 4 9 -7 18 -14 21 -14 7z"/>
<path d="M6355 8710 c-3 -5 -1 -10 6 -10 6 0 9 -8 6 -20 -3 -11 -1 -20 4 -20
5 0 9 14 9 30 0 29 -13 40 -25 20z"/>
<path d="M6395 8699 c-4 -6 -5 -12 -2 -15 2 -3 7 2 10 11 7 17 1 20 -8 4z"/>
<path d="M6011 8684 c0 -11 3 -14 6 -6 3 7 2 16 -1 19 -3 4 -6 -2 -5 -13z"/>
<path d="M5301 8676 c-8 -10 -9 -16 -1 -21 5 -3 10 1 10 11 0 13 3 14 14 5 9
-7 17 -8 20 -3 3 6 -1 13 -10 16 -21 8 -20 8 -33 -8z"/>
<path d="M7615 8680 c3 -5 8 -10 11 -10 2 0 4 5 4 10 0 6 -5 10 -11 10 -5 0
-7 -4 -4 -10z"/>
<path d="M4819 8668 c-14 -46 1 -77 20 -45 13 20 13 21 -3 8 -15 -13 -17 -12
-12 12 3 15 3 27 0 27 -2 0 -4 -1 -5 -2z"/>
<path d="M4976 8660 c14 -20 12 -39 -6 -50 -11 -7 -11 -10 -2 -10 7 0 11 -4 8
-8 -2 -4 -1 -14 5 -22 7 -12 9 -11 10 5 1 11 0 27 -1 34 -2 13 1 13 17 1 17
-14 17 -14 0 6 -9 11 -15 23 -12 26 3 3 -3 11 -12 19 -16 12 -17 12 -7 -1z"/>
<path d="M5393 8663 c4 -6 1 -14 -5 -16 -7 -3 0 -6 16 -6 16 -1 27 0 25 2 -2
1 -13 9 -23 17 -11 8 -17 10 -13 3z"/>
<path d="M4580 8650 c0 -5 5 -10 10 -10 6 0 10 5 10 10 0 6 -4 10 -10 10 -5 0
-10 -4 -10 -10z"/>
<path d="M3451 8614 c0 -11 3 -14 6 -6 3 7 2 16 -1 19 -3 4 -6 -2 -5 -13z"/>
<path d="M6516 8617 c3 -10 9 -15 12 -12 3 3 0 11 -7 18 -10 9 -11 8 -5 -6z"/>
<path d="M4005 8609 c-4 -6 -14 -8 -23 -4 -9 3 -13 3 -9 -1 4 -4 1 -14 -6 -23
-10 -14 -10 -14 4 -4 9 7 19 10 22 6 4 -3 9 2 13 11 3 9 10 13 15 10 5 -3 9 0
9 5 0 14 -17 14 -25 0z"/>
<path d="M5362 8600 c-15 -25 -15 -52 0 -85 9 -21 9 -28 -1 -34 -9 -6 -10 -11
-3 -15 12 -7 17 -1 26 37 5 21 4 27 -5 21 -8 -4 -9 -3 -5 5 4 6 12 9 17 6 8
-6 13 9 10 29 -1 5 6 5 16 2 14 -6 16 -5 6 5 -19 19 -15 33 5 18 15 -13 16
-12 4 3 -8 9 -20 14 -29 11 -8 -3 -18 -1 -22 5 -4 7 -11 4 -19 -8z"/>
<path d="M6542 8578 c2 -16 12 -24 36 -29 17 -4 32 -3 32 2 0 5 -6 9 -12 9 -9
0 -8 4 2 10 12 8 11 10 -7 10 -12 0 -25 5 -28 10 -11 18 -26 10 -23 -12z"/>
<path d="M8034 8592 c3 -5 0 -12 -6 -15 -7 -2 -10 -7 -7 -11 3 -4 12 0 18 8 9
11 9 16 0 22 -7 4 -9 3 -5 -4z"/>
<path d="M4784 8581 c4 -5 0 -11 -6 -14 -7 -3 -3 -4 9 -4 17 1 19 4 11 14 -12
15 -22 18 -14 4z"/>
<path d="M4821 8568 c5 -10 11 -18 12 -18 2 0 3 8 3 18 0 10 -6 19 -13 19 -8
0 -9 -6 -2 -19z"/>
<path d="M6140 8545 c0 -8 2 -15 4 -15 2 0 6 7 10 15 3 8 1 15 -4 15 -6 0 -10
-7 -10 -15z"/>
<path d="M8135 8550 c3 -5 8 -10 11 -10 2 0 4 5 4 10 0 6 -5 10 -11 10 -5 0
-7 -4 -4 -10z"/>
<path d="M8208 8553 c7 -3 16 -2 19 1 4 3 -2 6 -13 5 -11 0 -14 -3 -6 -6z"/>
<path d="M4400 8540 c0 -5 5 -10 10 -10 6 0 10 5 10 10 0 6 -4 10 -10 10 -5 0
-10 -4 -10 -10z"/>
<path d="M4784 8536 c1 -8 5 -18 8 -22 4 -3 5 1 4 10 -1 8 -5 18 -8 22 -4 3
-5 -1 -4 -10z"/>
<path d="M8073 8513 c2 -13 7 -24 12 -24 5 0 10 11 12 24 2 16 -2 24 -12 24
-10 0 -14 -8 -12 -24z"/>
<path d="M4315 8520 c4 -6 11 -8 16 -5 14 9 11 15 -7 15 -8 0 -12 -5 -9 -10z"/>
<path d="M4537 8506 c-15 -12 -16 -15 -2 -26 13 -11 14 -10 9 4 -4 11 -2 15 7
13 8 -2 11 -2 6 0 -4 3 -5 9 -1 14 7 12 2 11 -19 -5z"/>
<path d="M4788 8486 c3 -6 5 -18 4 -28 -2 -9 1 -19 6 -22 5 -3 9 9 9 27 -1 20
-6 34 -14 34 -6 0 -9 -5 -5 -11z"/>
<path d="M8051 8484 c0 -11 3 -14 6 -6 3 7 2 16 -1 19 -3 4 -6 -2 -5 -13z"/>
<path d="M6570 8468 c0 -4 4 -8 9 -8 6 0 12 4 15 8 3 5 -1 9 -9 9 -8 0 -15 -4
-15 -9z"/>
<path d="M8110 8470 c0 -6 7 -10 15 -10 8 0 15 -4 15 -10 0 -5 5 -10 11 -10 6
0 9 5 7 12 -5 14 -48 31 -48 18z"/>
<path d="M3274 8432 c1 -15 5 -33 10 -40 4 -7 5 -20 2 -28 -3 -8 -2 -13 3 -10
12 8 20 66 9 66 -4 0 -8 6 -8 14 0 8 -4 17 -9 20 -5 3 -8 -7 -7 -22z"/>
<path d="M4780 8408 c0 -4 5 -8 11 -8 5 0 7 -4 4 -10 -3 -5 -2 -10 4 -10 5 0
9 8 8 18 -1 18 -27 27 -27 10z"/>
<path d="M5542 8396 c-13 -22 -10 -36 10 -47 13 -7 18 -7 14 -1 -3 6 -2 21 3
34 7 19 6 25 -5 25 -8 0 -18 -5 -22 -11z m14 -11 c-1 -8 -5 -17 -8 -21 -5 -4
-4 16 1 34 3 9 9 -1 7 -13z"/>
<path d="M7640 8375 c0 -24 5 -35 14 -35 20 0 25 20 13 48 -15 33 -27 27 -27
-13z"/>
<path d="M5596 8384 c-20 -20 -20 -25 1 -17 9 4 14 2 10 -3 -3 -6 4 -10 17
-10 16 0 22 6 24 25 1 13 -1 21 -5 17 -5 -4 -8 -12 -8 -17 0 -5 -4 -8 -10 -6
-5 1 -9 8 -9 15 2 16 -1 15 -20 -4z"/>
<path d="M7842 8381 c-11 -7 -10 -10 3 -15 26 -9 53 -7 61 6 4 6 3 8 -4 4 -6
-3 -13 -2 -17 4 -7 12 -25 13 -43 1z"/>
<path d="M7720 8365 c-19 -7 -30 -14 -25 -14 6 -1 4 -5 -3 -9 -8 -6 -1 -12 23
-19 33 -10 35 -10 23 4 -11 14 -11 15 2 11 8 -3 23 -1 33 4 15 8 16 11 3 23
-8 8 -16 15 -18 14 -2 0 -19 -7 -38 -14z"/>
<path d="M3299 8343 c-13 -16 -12 -17 4 -4 16 13 21 21 13 21 -2 0 -10 -8 -17
-17z"/>
<path d="M6016 8351 c-4 -7 -5 -15 -2 -18 9 -9 19 4 14 18 -4 11 -6 11 -12 0z"/>
<path d="M6045 8350 c-3 -5 6 -22 21 -37 15 -16 22 -21 15 -11 -9 13 -9 17 1
20 10 4 10 8 -1 21 -15 19 -27 21 -36 7z"/>
<path d="M4780 8345 c0 -2 6 -8 13 -14 10 -8 14 -7 14 2 0 8 -6 14 -14 14 -7
0 -13 -1 -13 -2z"/>
<path d="M5979 8330 c0 -3 -2 -13 -4 -23 -2 -9 1 -15 5 -12 5 3 13 -3 19 -12
10 -16 10 -15 8 5 -3 19 -26 54 -28 42z"/>
<path d="M6033 8305 c0 -8 4 -12 9 -9 5 3 6 10 3 15 -9 13 -12 11 -12 -6z"/>
<path d="M6055 8280 c-3 -5 -1 -10 4 -10 6 0 11 5 11 10 0 6 -2 10 -4 10 -3 0
-8 -4 -11 -10z"/>
<path d="M5898 8273 c7 -3 16 -2 19 1 4 3 -2 6 -13 5 -11 0 -14 -3 -6 -6z"/>
<path d="M7838 8264 c13 -9 26 -13 29 -10 3 3 12 1 18 -4 9 -7 17 -5 26 6 13
15 11 17 -19 12 -18 -2 -35 -1 -38 4 -3 4 -13 8 -22 8 -13 0 -11 -4 6 -16z"/>
<path d="M8178 8273 c6 -2 18 -2 25 0 6 3 1 5 -13 5 -14 0 -19 -2 -12 -5z"/>
<path d="M5974 8222 c4 -3 14 -7 22 -8 9 -1 13 0 10 4 -4 3 -14 7 -22 8 -9 1
-13 0 -10 -4z"/>
<path d="M6560 8219 c0 -5 4 -8 9 -5 5 3 11 -4 14 -16 4 -12 8 -20 11 -17 10
10 -6 49 -20 49 -8 0 -14 -5 -14 -11z"/>
<path d="M8110 8210 c-9 -6 -10 -10 -3 -10 6 0 15 5 18 10 8 12 4 12 -15 0z"/>
<path d="M6067 8195 c3 -8 9 -12 14 -9 12 7 11 11 -5 17 -10 4 -13 1 -9 -8z"/>
<path d="M6610 8191 c0 -6 4 -13 10 -16 6 -3 7 1 4 9 -7 18 -14 21 -14 7z"/>
<path d="M5286 8175 c-3 -8 -1 -15 4 -15 6 0 10 7 10 15 0 8 -2 15 -4 15 -2 0
-6 -7 -10 -15z"/>
<path d="M4739 8163 c-12 -16 -12 -17 2 -6 9 7 20 9 24 5 5 -4 5 -1 1 6 -9 16
-11 15 -27 -5z"/>
<path d="M5380 8160 c0 -5 5 -10 10 -10 6 0 10 5 10 10 0 6 -4 10 -10 10 -5 0
-10 -4 -10 -10z"/>
<path d="M5283 8135 c0 -6 6 -12 12 -12 6 0 12 6 12 12 0 6 -6 12 -12 12 -6 0
-12 -6 -12 -12z"/>
<path d="M3272 8110 c0 -14 2 -19 5 -12 2 6 2 18 0 25 -3 6 -5 1 -5 -13z"/>
<path d="M5500 8110 c0 -5 5 -10 11 -10 5 0 7 5 4 10 -3 6 -8 10 -11 10 -2 0
-4 -4 -4 -10z"/>
<path d="M6105 8110 c3 -5 11 -10 16 -10 6 0 7 5 4 10 -3 6 -11 10 -16 10 -6
0 -7 -4 -4 -10z"/>
<path d="M5915 8081 c-3 -5 -2 -12 3 -15 5 -3 9 1 9 9 0 17 -3 19 -12 6z"/>
<path d="M3271 8042 c-1 -7 -5 -10 -11 -7 -5 3 -10 1 -10 -4 0 -6 5 -11 10
-11 6 0 10 -6 10 -13 0 -8 7 -14 14 -14 10 0 12 5 7 16 -5 9 -11 23 -14 31 -4
10 -6 11 -6 2z"/>
<path d="M5926 8032 c-3 -5 1 -9 9 -9 8 0 12 4 9 9 -3 4 -7 8 -9 8 -2 0 -6 -4
-9 -8z"/>
<path d="M3646 7977 c3 -10 9 -15 12 -12 3 3 0 11 -7 18 -10 9 -11 8 -5 -6z"/>
<path d="M3743 7975 c0 -8 4 -12 9 -9 5 3 6 10 3 15 -9 13 -12 11 -12 -6z"/>
<path d="M3670 7956 c0 -14 -4 -28 -10 -31 -5 -3 -8 0 -7 7 2 7 2 9 -1 5 -2
-4 -11 -2 -20 5 -11 10 -11 5 3 -16 11 -16 21 -24 23 -17 2 6 7 9 11 7 4 -3 8
11 9 30 2 19 0 34 -3 34 -3 0 -5 -11 -5 -24z"/>
<path d="M3425 7901 c-3 -5 -2 -12 3 -15 5 -3 9 1 9 9 0 17 -3 19 -12 6z"/>
<path d="M3607 7897 c-3 -8 -2 -20 3 -26 5 -9 8 -4 8 13 0 29 -3 32 -11 13z"/>
<path d="M4123 7827 c5 -13 2 -17 -10 -15 -9 2 -18 -2 -20 -8 -2 -7 10 -13 30
-16 28 -3 34 -1 29 12 -3 8 -13 22 -21 30 -13 13 -14 13 -8 -3z"/>
<path d="M3651 7825 c1 -22 16 -48 22 -38 3 5 0 19 -8 29 -8 10 -14 15 -14 9z"/>
<path d="M4255 7820 c-3 -5 -5 -10 -3 -11 32 -8 48 -7 48 3 0 6 -3 8 -7 5 -3
-4 -12 -2 -19 4 -8 7 -14 7 -19 -1z"/>
<path d="M4390 7751 c0 -6 4 -13 10 -16 6 -3 7 1 4 9 -7 18 -14 21 -14 7z"/>
<path d="M4146 7735 c-9 -26 -7 -32 5 -12 6 10 9 21 6 23 -2 3 -7 -2 -11 -11z"/>
<path d="M3936 7723 c-6 -14 -5 -15 5 -6 7 7 10 15 7 18 -3 3 -9 -2 -12 -12z"/>
<path d="M4221 7724 c0 -11 3 -14 6 -6 3 7 2 16 -1 19 -3 4 -6 -2 -5 -13z"/>
<path d="M3223 7634 c-3 -8 2 -23 11 -32 10 -10 16 -12 16 -4 0 7 -5 12 -11
12 -6 0 -8 9 -4 20 7 24 -3 27 -12 4z"/>
<path d="M4213 7623 c0 -9 4 -10 14 -2 7 6 13 12 13 14 0 1 -6 2 -13 2 -8 0
-14 -6 -14 -14z"/>
<path d="M3953 7615 c0 -8 4 -12 9 -9 5 3 6 10 3 15 -9 13 -12 11 -12 -6z"/>
<path d="M3170 7595 c0 -8 4 -15 10 -15 5 0 7 7 4 15 -4 8 -8 15 -10 15 -2 0
-4 -7 -4 -15z"/>
<path d="M3270 7577 c0 -11 -5 -14 -16 -10 -13 5 -15 2 -9 -16 4 -13 2 -28 -5
-36 -10 -12 -9 -15 9 -15 15 0 21 6 21 23 0 13 5 28 12 35 9 9 9 15 0 24 -9 9
-12 8 -12 -5z"/>
<path d="M3356 7565 c-9 -26 -7 -32 5 -12 6 10 9 21 6 23 -2 3 -7 -2 -11 -11z"/>
<path d="M3359 7523 c-13 -16 -12 -17 4 -4 16 13 21 21 13 21 -2 0 -10 -8 -17
-17z"/>
<path d="M3337 7459 c4 -13 8 -18 11 -10 2 7 -1 18 -6 23 -8 8 -9 4 -5 -13z"/>
<path d="M3407 7453 c-2 -4 -1 -16 2 -26 6 -16 9 -17 19 -4 10 11 9 17 -2 26
-8 7 -16 8 -19 4z"/>
<path d="M3355 7302 c-11 -11 -4 -32 10 -32 8 0 15 6 15 14 0 10 8 13 21 11
12 -3 19 -1 15 2 -8 9 -54 12 -61 5z"/>
<path d="M3410 7262 c0 -8 -6 -12 -15 -8 -8 3 -15 1 -15 -4 0 -6 5 -10 10 -10
6 0 10 -5 10 -11 0 -5 -4 -7 -10 -4 -6 4 -7 -1 -3 -11 6 -16 7 -15 20 2 7 10
13 14 13 8 0 -5 -10 -20 -21 -34 -13 -16 -19 -19 -15 -8 6 19 -9 34 -18 19 -3
-5 3 -20 15 -32 11 -13 18 -19 15 -12 -4 7 3 13 16 15 18 2 22 9 20 29 -1 14
6 34 17 46 20 21 20 21 -10 25 -20 3 -29 0 -29 -10z"/>
<path d="M3520 7270 c0 -5 -9 -10 -20 -10 -22 0 -26 -17 -9 -40 9 -13 10 -12
5 3 -3 11 -2 16 4 12 6 -3 10 -13 10 -21 0 -8 4 -13 9 -10 9 6 13 76 5 76 -2
0 -4 -4 -4 -10z"/>
<path d="M3321 7240 c0 -29 1 -32 10 -17 7 11 7 23 0 35 -9 14 -10 11 -10 -18z"/>
<path d="M3347 7237 c-3 -8 1 -14 9 -14 16 0 19 13 5 21 -5 3 -11 0 -14 -7z"/>
<path d="M3395 6670 c-3 -5 -1 -10 4 -10 6 0 11 5 11 10 0 6 -2 10 -4 10 -3 0
-8 -4 -11 -10z"/>
<path d="M3055 6620 c-3 -5 1 -10 10 -10 9 0 13 5 10 10 -3 6 -8 10 -10 10 -2
0 -7 -4 -10 -10z"/>
<path d="M3270 6579 c0 -5 5 -7 10 -4 6 3 10 8 10 11 0 2 -4 4 -10 4 -5 0 -10
-5 -10 -11z"/>
<path d="M10216 5304 c-10 -27 -5 -128 9 -164 13 -33 14 -29 14 73 1 98 -7
131 -23 91z"/>
<path d="M10214 4533 c-11 -26 -31 -79 -44 -118 -30 -91 -81 -173 -228 -367
-36 -49 -143 -170 -184 -208 -105 -99 -295 -260 -309 -260 -5 0 -26 -15 -46
-33 -21 -19 -63 -50 -93 -70 -30 -21 -59 -40 -65 -44 -5 -5 -30 -18 -55 -29
-25 -12 -63 -37 -86 -55 -22 -19 -63 -45 -92 -58 -29 -14 -52 -28 -52 -33 0
-5 -10 -13 -22 -18 -13 -6 -45 -24 -73 -40 -27 -17 -81 -46 -120 -66 -38 -19
-95 -53 -125 -74 -30 -21 -57 -38 -60 -37 -7 3 -140 -73 -176 -100 -17 -12
-34 -23 -37 -23 -4 0 -71 -31 -149 -69 -79 -37 -181 -85 -228 -106 -47 -21
-92 -43 -100 -51 -14 -12 -112 -58 -210 -99 -25 -10 -74 -37 -110 -60 -36 -23
-84 -48 -108 -55 -23 -7 -65 -28 -93 -47 -28 -18 -53 -33 -55 -33 -14 0 -253
-122 -264 -135 -7 -8 -17 -15 -22 -15 -19 0 -132 -53 -164 -76 -18 -13 -56
-35 -85 -49 -30 -14 -73 -37 -96 -51 -23 -14 -50 -27 -60 -29 -45 -9 -107 -37
-134 -59 -16 -14 -71 -48 -122 -76 -50 -29 -105 -65 -122 -80 -16 -15 -64 -47
-105 -70 -41 -24 -95 -60 -120 -81 -25 -20 -62 -44 -83 -53 -20 -8 -59 -33
-85 -55 -26 -21 -68 -52 -94 -68 -26 -15 -91 -58 -145 -94 -54 -36 -111 -71
-127 -78 -16 -6 -48 -34 -72 -60 -24 -27 -55 -52 -69 -55 -14 -4 -25 -11 -25
-16 0 -6 -8 -10 -18 -10 -17 0 -51 -27 -149 -120 -23 -22 -46 -40 -51 -40 -5
0 -15 -12 -23 -27 -42 -84 -91 -123 -153 -123 -39 0 -56 20 -56 67 0 15 -12
50 -26 78 -29 53 -92 225 -106 290 -5 22 -9 54 -8 72 0 17 -4 34 -10 38 -6 3
-8 11 -5 16 4 5 1 9 -4 9 -6 0 -10 3 -9 8 3 13 -24 61 -38 66 -19 7 -19 -85 1
-150 8 -27 15 -62 15 -77 0 -32 63 -226 84 -260 7 -12 16 -44 19 -72 3 -27 12
-63 21 -79 8 -16 18 -59 21 -95 4 -36 15 -97 25 -134 16 -58 18 -92 14 -225
-6 -167 -17 -224 -65 -334 -16 -36 -29 -69 -29 -72 0 -3 24 -6 54 -6 51 0 54
2 68 32 8 18 21 60 27 93 7 33 20 78 28 100 10 27 20 113 28 258 10 175 15
221 29 235 9 10 16 23 16 28 0 6 16 26 36 45 20 18 43 49 50 67 8 17 20 32 27
32 6 0 23 15 37 33 30 38 56 64 96 95 16 12 43 32 59 45 17 13 47 34 68 46 20
12 37 27 37 32 0 5 4 9 9 9 9 0 34 21 111 93 47 45 98 74 142 82 25 5 38 13
42 28 3 12 8 18 11 15 4 -4 16 3 28 13 12 11 29 26 37 33 8 8 31 21 50 30 42
19 64 33 98 64 14 12 36 25 49 28 13 4 23 10 23 15 0 5 10 14 23 19 31 14 55
31 89 62 16 16 35 28 43 28 8 0 37 14 63 30 27 17 52 30 56 30 4 0 14 6 21 13
38 33 135 100 135 91 0 -3 7 0 16 7 40 33 560 0 673 -42 14 -6 52 -12 85 -15
34 -3 63 -9 66 -12 3 -4 14 -9 25 -10 22 -4 71 -29 96 -50 9 -7 20 -12 25 -11
17 5 74 -13 74 -22 0 -5 8 -9 18 -9 9 -1 35 -9 57 -20 22 -11 46 -19 54 -20 8
0 29 -11 47 -25 18 -14 40 -25 48 -25 9 0 16 -4 16 -10 0 -5 3 -9 8 -8 7 1 49
-15 84 -33 10 -5 24 -9 32 -9 8 0 19 -6 23 -13 4 -7 27 -19 51 -26 24 -6 51
-21 60 -32 15 -18 111 -69 130 -69 13 0 126 -61 146 -78 10 -10 20 -15 22 -13
8 6 68 -21 89 -40 11 -10 43 -30 70 -44 28 -15 60 -36 72 -47 12 -12 39 -31
60 -44 21 -13 34 -24 29 -24 -6 0 13 -12 42 -26 29 -14 52 -29 52 -33 0 -9 57
-71 66 -71 4 0 26 -16 50 -35 23 -19 45 -35 49 -35 4 0 61 -54 126 -120 66
-66 123 -120 127 -120 14 0 73 -66 66 -73 -4 -4 -2 -7 5 -7 20 0 73 -42 121
-95 25 -27 103 -109 173 -181 71 -73 129 -136 129 -141 1 -4 16 -18 34 -30 18
-13 35 -32 39 -43 4 -11 19 -32 33 -45 23 -21 37 -25 89 -25 l63 0 -18 28
c-10 15 -36 46 -57 69 -69 74 -459 467 -490 494 -17 14 -67 63 -112 110 -105
109 -139 140 -191 177 -24 17 -61 51 -83 76 -22 25 -66 60 -97 77 -31 18 -73
49 -93 68 -79 79 -239 195 -342 248 -28 15 -65 36 -82 48 -31 23 -129 65 -150
65 -6 0 -29 13 -51 30 -21 16 -44 30 -50 30 -5 0 -30 12 -55 28 -24 15 -71 37
-104 50 -33 12 -87 37 -120 54 -299 155 -351 178 -398 178 -15 0 -49 11 -75
23 -51 26 -177 53 -283 62 -37 3 -90 10 -119 15 -29 6 -74 10 -99 10 -48 0
-91 21 -91 45 0 22 110 100 158 111 15 4 52 21 82 38 69 40 105 58 202 97 43
17 93 41 110 53 18 12 62 36 98 55 36 18 92 48 125 67 33 18 76 41 95 50 39
18 145 71 205 102 22 12 63 31 90 42 96 41 220 105 228 117 4 7 15 13 23 13
18 0 268 124 349 173 33 21 66 37 74 37 7 0 34 14 60 32 25 17 75 47 111 66
36 19 68 40 73 47 7 13 163 95 180 95 5 0 15 7 23 15 9 8 24 15 34 15 11 0 23
6 27 14 12 20 180 119 230 135 23 8 53 11 68 9 18 -4 30 0 39 13 15 22 70 43
90 36 13 -5 16 -24 16 -94 0 -12 5 -25 10 -28 6 -3 10 0 10 9 0 8 6 17 13 19
10 4 10 6 0 6 -7 1 -13 6 -13 12 0 5 5 7 10 4 9 -6 15 8 11 29 -1 5 5 4 13 -4
17 -13 22 -25 7 -16 -5 3 -11 -1 -15 -9 -3 -8 0 -15 7 -15 8 0 6 -4 -3 -10
-18 -11 -23 -62 -7 -72 9 -5 7 -12 -7 -25 -10 -10 -15 -12 -11 -4 6 10 4 12
-4 7 -6 -4 -10 -20 -8 -34 2 -15 0 -41 -4 -59 -8 -39 11 -63 31 -38 11 13 10
14 -5 9 -16 -7 -16 -5 1 22 l19 28 3 -26 c3 -24 6 -26 26 -18 28 10 41 -11 45
-76 2 -35 -3 -47 -28 -73 -34 -35 -40 -71 -15 -96 14 -14 15 -20 3 -41 -12
-24 -11 -28 28 -62 49 -45 61 -83 58 -185 -3 -76 2 -88 40 -91 6 -1 11 -23 12
-51 2 -61 22 -155 38 -175 6 -8 12 -31 13 -50 1 -19 9 -48 16 -65 8 -16 19
-48 25 -70 6 -22 23 -53 37 -70 33 -37 55 -88 56 -129 1 -17 7 -40 14 -51 8
-10 17 -41 20 -67 4 -31 12 -49 23 -53 10 -3 27 -38 44 -92 29 -89 47 -136 73
-186 8 -16 14 -34 14 -41 0 -7 11 -33 25 -57 13 -24 42 -80 64 -124 l40 -80
-2 181 c-2 149 -5 185 -18 200 -16 19 -42 86 -54 138 -3 17 -21 55 -39 86 -18
31 -39 73 -45 93 -7 20 -17 39 -22 42 -5 4 -9 14 -9 24 0 10 -7 32 -15 47 -8
16 -15 36 -15 46 0 9 -14 58 -31 110 -27 82 -61 205 -105 378 -7 30 -14 72
-14 93 0 39 -36 164 -51 181 -5 6 -9 43 -9 83 0 40 -6 90 -14 110 -15 39 -51
351 -48 413 1 19 2 94 2 166 -1 137 5 165 39 201 12 12 21 26 21 30 0 5 12 17
27 28 55 40 112 97 119 118 3 12 17 33 31 47 40 42 123 147 123 158 0 5 7 15
15 22 9 7 37 45 63 83 l47 70 3 116 c2 64 2 133 0 154 l-3 38 -21 -48z m-594
-1093 c0 -5 -4 -10 -9 -10 -6 0 -13 5 -16 10 -3 6 1 10 9 10 9 0 16 -4 16 -10z
m-17 -156 c7 -8 -17 -34 -32 -34 -14 0 -23 18 -16 30 7 11 38 14 48 4z"/>
<path d="M2230 3331 c0 -10 40 -22 52 -15 18 11 6 24 -22 24 -16 0 -30 -4 -30
-9z"/>
<path d="M2323 3306 c-3 -6 -3 -8 1 -4 4 3 23 0 41 -8 42 -17 64 -19 48 -3
-17 17 -82 29 -90 15z"/>
<path d="M9440 3280 c0 -5 5 -10 10 -10 6 0 10 5 10 10 0 6 -4 10 -10 10 -5 0
-10 -4 -10 -10z"/>
<path d="M9423 3263 c4 -3 1 -13 -6 -22 -11 -14 -10 -14 5 -2 16 12 16 31 1
31 -4 0 -3 -3 0 -7z"/>
<path d="M9580 3051 c0 -7 -4 -9 -10 -6 -5 3 -10 3 -11 -2 0 -4 -2 -16 -4 -25
-2 -10 1 -18 6 -18 6 0 8 -4 5 -8 -2 -4 4 -8 14 -9 15 -1 18 4 14 35 -5 35
-14 58 -14 33z"/>
<path d="M4616 1663 c-4 -10 -4 -14 0 -10 4 4 13 2 21 -4 14 -13 16 -9 7 15
-8 21 -20 20 -28 -1z"/>
</g>
</svg>
